M48
; DRILL file {KiCad (6.0.1)} date Sat Mar  5 18:57:51 2022
; FORMAT={-:-/ absolute / metric / decimal}
; #@! TF.CreationDate,2022-03-05T18:57:51+09:00
; #@! TF.GenerationSoftware,Kicad,Pcbnew,(6.0.1)
; #@! TF.FileFunction,MixedPlating,1,2
FMAT,2
METRIC
; #@! TA.AperFunction,Plated,PTH,ViaDrill
T1C0.400
; #@! TA.AperFunction,Plated,PTH,ComponentDrill
T2C0.762
; #@! TA.AperFunction,Plated,PTH,ComponentDrill
T3C0.800
; #@! TA.AperFunction,Plated,PTH,ComponentDrill
T4C0.900
; #@! TA.AperFunction,Plated,PTH,ComponentDrill
T5C1.000
; #@! TA.AperFunction,Plated,PTH,ComponentDrill
T6C1.100
%
G90
G05
T1
X107.95Y-105.41
X108.543Y-103.547
X108.585Y-60.96
X108.585Y-80.645
X108.585Y-101.6
X109.22Y-92.71
X109.855Y-81.28
X110.284Y-87.606
X110.418Y-69.922
X111.053Y-59.011
X111.125Y-69.215
X111.125Y-80.01
X111.76Y-83.185
X112.395Y-59.69
X112.395Y-87.54
X112.62Y-69.85
X113.03Y-102.235
X113.07Y-80.645
X114.3Y-64.77
X114.935Y-81.28
X115.57Y-69.85
X115.57Y-88.265
X115.57Y-92.075
X115.57Y-101.6
X116.106Y-66.026
X116.205Y-105.41
X116.84Y-76.835
X118.11Y-87.54
X118.304Y-71.755
X118.745Y-66.04
X119.38Y-81.915
X120.105Y-78.74
X122.555Y-85.725
X122.966Y-95.661
X123.825Y-92.71
X124.46Y-69.215
X125.558Y-100.793
X125.64Y-81.37
X125.73Y-95.25
X127.635Y-61.595
X128.27Y-67.31
X128.905Y-100.33
X129.375Y-74.13
X130.175Y-75.565
X130.175Y-95.25
T2
X106.68Y-59.715
X106.68Y-62.255
X106.68Y-64.795
X106.68Y-67.335
X106.68Y-69.875
X106.68Y-72.415
X106.68Y-74.955
X106.68Y-77.495
X106.68Y-80.035
X106.68Y-82.575
X106.68Y-85.115
X106.68Y-87.655
X106.68Y-90.195
X106.68Y-92.735
X106.68Y-95.275
X132.08Y-59.715
X132.08Y-62.255
X132.08Y-64.795
X132.08Y-67.335
X132.08Y-69.875
X132.08Y-72.415
X132.08Y-74.955
X132.08Y-77.495
X132.08Y-80.035
X132.08Y-82.575
X132.08Y-85.115
X132.08Y-87.655
X132.08Y-90.195
X132.08Y-92.735
X132.08Y-95.275
T3
X110.47Y-67.31
X110.48Y-63.5
X113.01Y-67.31
X113.02Y-63.5
X115.55Y-67.31
X115.56Y-63.5
X118.09Y-67.31
X118.1Y-63.5
X120.63Y-67.31
X120.64Y-63.5
X123.18Y-63.5
X125.72Y-63.5
X126.365Y-97.79
X126.492Y-59.69
X128.26Y-63.5
X128.865Y-97.79
X128.992Y-59.69
T4
X109.845Y-106.785
X110.865Y-104.245
X111.885Y-106.785
X112.905Y-104.245
X113.925Y-106.785
X114.945Y-104.245
X123.805Y-106.785
X124.825Y-104.245
X125.845Y-106.785
X126.865Y-104.245
X127.885Y-106.785
X128.905Y-104.245
T5
X113.03Y-97.15
X113.03Y-99.69
X115.56Y-59.69
X118.1Y-59.69
X120.64Y-59.69
X123.18Y-59.69
T6
X109.51Y-71.68
X109.51Y-78.18
X109.51Y-83.745
X109.51Y-90.245
X114.01Y-71.68
X114.01Y-78.18
X114.01Y-83.745
X114.01Y-90.245
X117.13Y-74.22
X117.13Y-80.72
X117.13Y-83.745
X117.13Y-90.245
X117.13Y-93.27
X117.13Y-99.77
X121.63Y-74.22
X121.63Y-80.72
X121.63Y-83.745
X121.63Y-90.245
X121.63Y-93.27
X121.63Y-99.77
X124.75Y-71.68
X124.75Y-78.18
X124.75Y-83.745
X124.75Y-90.245
X129.25Y-71.68
X129.25Y-78.18
X129.25Y-83.745
X129.25Y-90.245
T0
M30
