%TF.GenerationSoftware,KiCad,Pcbnew,(6.0.1)*%
%TF.CreationDate,2022-03-05T18:57:40+09:00*%
%TF.ProjectId,SHC,5348432e-6b69-4636-9164-5f7063625858,rev?*%
%TF.SameCoordinates,Original*%
%TF.FileFunction,Copper,L1,Top*%
%TF.FilePolarity,Positive*%
%FSLAX46Y46*%
G04 Gerber Fmt 4.6, Leading zero omitted, Abs format (unit mm)*
G04 Created by KiCad (PCBNEW (6.0.1)) date 2022-03-05 18:57:40*
%MOMM*%
%LPD*%
G01*
G04 APERTURE LIST*
%TA.AperFunction,ComponentPad*%
%ADD10R,1.520000X1.520000*%
%TD*%
%TA.AperFunction,ComponentPad*%
%ADD11C,1.520000*%
%TD*%
%TA.AperFunction,ComponentPad*%
%ADD12C,2.000000*%
%TD*%
%TA.AperFunction,ComponentPad*%
%ADD13C,1.600000*%
%TD*%
%TA.AperFunction,ComponentPad*%
%ADD14R,1.700000X1.700000*%
%TD*%
%TA.AperFunction,ComponentPad*%
%ADD15O,1.700000X1.700000*%
%TD*%
%TA.AperFunction,ComponentPad*%
%ADD16R,1.600000X1.600000*%
%TD*%
%TA.AperFunction,ComponentPad*%
%ADD17O,1.600000X1.600000*%
%TD*%
%TA.AperFunction,ComponentPad*%
%ADD18R,1.524000X1.524000*%
%TD*%
%TA.AperFunction,ComponentPad*%
%ADD19C,1.524000*%
%TD*%
%TA.AperFunction,ViaPad*%
%ADD20C,0.800000*%
%TD*%
%TA.AperFunction,Conductor*%
%ADD21C,0.250000*%
%TD*%
%TA.AperFunction,Conductor*%
%ADD22C,0.200000*%
%TD*%
G04 APERTURE END LIST*
D10*
%TO.P,J3,1*%
%TO.N,Net-(J3-Pad1)*%
X114945000Y-104245000D03*
D11*
%TO.P,J3,2*%
%TO.N,Earth*%
X113925000Y-106785000D03*
%TO.P,J3,3*%
%TO.N,RA1-*%
X112905000Y-104245000D03*
%TO.P,J3,4*%
%TO.N,DE1-*%
X111885000Y-106785000D03*
%TO.P,J3,5*%
%TO.N,DE1+*%
X110865000Y-104245000D03*
%TO.P,J3,6*%
%TO.N,RA1+*%
X109845000Y-106785000D03*
%TD*%
D12*
%TO.P,F1,1,1*%
%TO.N,F1*%
X109510000Y-71680000D03*
X109510000Y-78180000D03*
%TO.P,F1,2,2*%
%TO.N,Earth*%
X114010000Y-78180000D03*
X114010000Y-71680000D03*
%TD*%
%TO.P,W1,1,1*%
%TO.N,W*%
X109510000Y-83745000D03*
X109510000Y-90245000D03*
%TO.P,W1,2,2*%
%TO.N,Earth*%
X114010000Y-83745000D03*
X114010000Y-90245000D03*
%TD*%
D13*
%TO.P,C2,1*%
%TO.N,Earth*%
X128992000Y-59690000D03*
%TO.P,C2,2*%
%TO.N,VCC*%
X126492000Y-59690000D03*
%TD*%
D10*
%TO.P,J1,1*%
%TO.N,+5V*%
X128905000Y-104245000D03*
D11*
%TO.P,J1,2*%
%TO.N,Earth*%
X127885000Y-106785000D03*
%TO.P,J1,3*%
%TO.N,RA-*%
X126865000Y-104245000D03*
%TO.P,J1,4*%
%TO.N,DE-*%
X125845000Y-106785000D03*
%TO.P,J1,5*%
%TO.N,DE+*%
X124825000Y-104245000D03*
%TO.P,J1,6*%
%TO.N,RA+*%
X123805000Y-106785000D03*
%TD*%
D14*
%TO.P,OLED,1,Pin_1*%
%TO.N,Earth*%
X123180000Y-59690000D03*
D15*
%TO.P,OLED,2,Pin_2*%
%TO.N,VCC*%
X120640000Y-59690000D03*
%TO.P,OLED,3,Pin_3*%
%TO.N,SCL*%
X118100000Y-59690000D03*
%TO.P,OLED,4,Pin_4*%
%TO.N,SDA*%
X115560000Y-59690000D03*
%TD*%
D16*
%TO.P,RN2,1,common*%
%TO.N,VCC*%
X110470000Y-67310000D03*
D17*
%TO.P,RN2,2,R1*%
%TO.N,RA1-*%
X113010000Y-67310000D03*
%TO.P,RN2,3,R2*%
%TO.N,DE1-*%
X115550000Y-67310000D03*
%TO.P,RN2,4,R3*%
%TO.N,DE1+*%
X118090000Y-67310000D03*
%TO.P,RN2,5,R4*%
%TO.N,RA1+*%
X120630000Y-67310000D03*
%TD*%
D12*
%TO.P,N1,1,1*%
%TO.N,N*%
X117130000Y-80720000D03*
X117130000Y-74220000D03*
%TO.P,N1,2,2*%
%TO.N,Earth*%
X121630000Y-80720000D03*
X121630000Y-74220000D03*
%TD*%
D18*
%TO.P,U1,1,EN*%
%TO.N,unconnected-(U1-Pad1)*%
X132080000Y-95275000D03*
D19*
%TO.P,U1,2,SENSOR_VP*%
%TO.N,E*%
X132080000Y-92735000D03*
%TO.P,U1,3,SENSOR_VN*%
%TO.N,F1*%
X132080000Y-90195000D03*
%TO.P,U1,4,IO34*%
%TO.N,W*%
X132080000Y-87655000D03*
%TO.P,U1,5,IO35*%
%TO.N,F2*%
X132080000Y-85115000D03*
%TO.P,U1,6,IO32*%
%TO.N,S*%
X132080000Y-82575000D03*
%TO.P,U1,7,IO33*%
%TO.N,SHIFT*%
X132080000Y-80035000D03*
%TO.P,U1,8,IO25*%
%TO.N,N*%
X132080000Y-77495000D03*
%TO.P,U1,9,IO26*%
%TO.N,RA+*%
X132080000Y-74955000D03*
%TO.P,U1,10,IO27*%
%TO.N,DE+*%
X132080000Y-72415000D03*
%TO.P,U1,11,IO14*%
%TO.N,DE-*%
X132080000Y-69875000D03*
%TO.P,U1,12,IO12*%
%TO.N,unconnected-(U1-Pad12)*%
X132080000Y-67335000D03*
%TO.P,U1,13,IO13*%
%TO.N,unconnected-(U1-Pad13)*%
X132080000Y-64795000D03*
%TO.P,U1,14,GND*%
%TO.N,Earth*%
X132080000Y-62255000D03*
%TO.P,U1,15,VIN*%
%TO.N,+5V*%
X132080000Y-59715000D03*
%TO.P,U1,16,3V3*%
%TO.N,VCC*%
X106680000Y-59715000D03*
%TO.P,U1,17,GND*%
%TO.N,Earth*%
X106680000Y-62255000D03*
%TO.P,U1,18,IO15*%
%TO.N,unconnected-(U1-Pad18)*%
X106680000Y-64795000D03*
%TO.P,U1,19,IO2*%
%TO.N,unconnected-(U1-Pad19)*%
X106680000Y-67335000D03*
%TO.P,U1,20,IO4*%
%TO.N,unconnected-(U1-Pad20)*%
X106680000Y-69875000D03*
%TO.P,U1,21,IO16*%
%TO.N,unconnected-(U1-Pad21)*%
X106680000Y-72415000D03*
%TO.P,U1,22,IO17*%
%TO.N,DE1+*%
X106680000Y-74955000D03*
%TO.P,U1,23,IO5*%
%TO.N,RA1+*%
X106680000Y-77495000D03*
%TO.P,U1,24,IO18*%
%TO.N,DE1-*%
X106680000Y-80035000D03*
%TO.P,U1,25,IO19*%
%TO.N,RA1-*%
X106680000Y-82575000D03*
%TO.P,U1,26,IO21*%
%TO.N,SDA*%
X106680000Y-85115000D03*
%TO.P,U1,27,RXD0/IO3*%
%TO.N,unconnected-(U1-Pad27)*%
X106680000Y-87655000D03*
%TO.P,U1,28,TXD0/IO1*%
%TO.N,unconnected-(U1-Pad28)*%
X106680000Y-90195000D03*
%TO.P,U1,29,IO22*%
%TO.N,SCL*%
X106680000Y-92735000D03*
%TO.P,U1,30,IO23*%
%TO.N,RA-*%
X106680000Y-95275000D03*
%TD*%
D12*
%TO.P,F2,1,1*%
%TO.N,F2*%
X124750000Y-78180000D03*
X124750000Y-71680000D03*
%TO.P,F2,2,2*%
%TO.N,Earth*%
X129250000Y-78180000D03*
X129250000Y-71680000D03*
%TD*%
%TO.P,E1,1,1*%
%TO.N,E*%
X124750000Y-90245000D03*
X124750000Y-83745000D03*
%TO.P,E1,2,2*%
%TO.N,Earth*%
X129250000Y-90245000D03*
X129250000Y-83745000D03*
%TD*%
D13*
%TO.P,C1,1*%
%TO.N,Earth*%
X126365000Y-97790000D03*
%TO.P,C1,2*%
%TO.N,+5V*%
X128865000Y-97790000D03*
%TD*%
D16*
%TO.P,RN1,1,common*%
%TO.N,VCC*%
X110480000Y-63500000D03*
D17*
%TO.P,RN1,2,R1*%
%TO.N,N*%
X113020000Y-63500000D03*
%TO.P,RN1,3,R2*%
%TO.N,S*%
X115560000Y-63500000D03*
%TO.P,RN1,4,R3*%
%TO.N,E*%
X118100000Y-63500000D03*
%TO.P,RN1,5,R4*%
%TO.N,W*%
X120640000Y-63500000D03*
%TO.P,RN1,6,R5*%
%TO.N,F1*%
X123180000Y-63500000D03*
%TO.P,RN1,7,R6*%
%TO.N,F2*%
X125720000Y-63500000D03*
%TO.P,RN1,8,R7*%
%TO.N,SHIFT*%
X128260000Y-63500000D03*
%TD*%
D12*
%TO.P,S1,1,1*%
%TO.N,S*%
X117130000Y-99770000D03*
X117130000Y-93270000D03*
%TO.P,S1,2,2*%
%TO.N,Earth*%
X121630000Y-93270000D03*
X121630000Y-99770000D03*
%TD*%
D14*
%TO.P,J4,1,Pin_1*%
%TO.N,+5V*%
X113030000Y-97150000D03*
D15*
%TO.P,J4,2,Pin_2*%
%TO.N,Net-(J3-Pad1)*%
X113030000Y-99690000D03*
%TD*%
D12*
%TO.P,SHIFT1,1,1*%
%TO.N,SHIFT*%
X117130000Y-90245000D03*
X117130000Y-83745000D03*
%TO.P,SHIFT1,2,2*%
%TO.N,Earth*%
X121630000Y-90245000D03*
X121630000Y-83745000D03*
%TD*%
D20*
%TO.N,Earth*%
X129375378Y-74130378D03*
X127635000Y-61595000D03*
X108585000Y-60960000D03*
X111053064Y-59010836D03*
X114300000Y-64770000D03*
X112395000Y-59690000D03*
X123825000Y-92710000D03*
X128905000Y-100330000D03*
X107950000Y-105410000D03*
X125730000Y-95250000D03*
X115570000Y-92075000D03*
X122555000Y-85725000D03*
X130175000Y-95250000D03*
X128270000Y-67310000D03*
X130175000Y-75565000D03*
X115570000Y-101600000D03*
%TO.N,F1*%
X114935000Y-81280000D03*
X115570000Y-88265000D03*
%TO.N,F2*%
X125640500Y-81369500D03*
%TO.N,SCL*%
X118110000Y-87540500D03*
X112395000Y-87540500D03*
X109220000Y-92710000D03*
%TO.N,SDA*%
X110283844Y-87606199D03*
%TO.N,+5V*%
X122965970Y-95660970D03*
%TO.N,DE+*%
X125557878Y-100792878D03*
%TO.N,S*%
X118745000Y-66040000D03*
X116106217Y-66025778D03*
X119380000Y-81915000D03*
%TO.N,W*%
X124460000Y-69215000D03*
X112619989Y-69850000D03*
X111760000Y-83185000D03*
%TO.N,SHIFT*%
X115570000Y-69850000D03*
X116840000Y-76835000D03*
%TO.N,Net-(J3-Pad1)*%
X113030000Y-102235000D03*
%TO.N,RA1-*%
X111125000Y-69215000D03*
X111125000Y-80010000D03*
X109855000Y-81280000D03*
X113069509Y-80645000D03*
%TO.N,DE1-*%
X108585000Y-80645000D03*
X110418245Y-69921755D03*
X108585000Y-101600000D03*
X108542878Y-103547122D03*
%TO.N,DE1+*%
X118304020Y-71755000D03*
%TO.N,RA1+*%
X116205000Y-105410000D03*
X120104500Y-78740000D03*
%TD*%
D21*
%TO.N,E*%
X124750000Y-83745000D02*
X123425489Y-82420489D01*
X118410300Y-63500000D02*
X118100000Y-63500000D01*
X124750000Y-83745000D02*
X124750000Y-90245000D01*
X123425489Y-82420489D02*
X123425489Y-68515189D01*
X123425489Y-68515189D02*
X118410300Y-63500000D01*
%TO.N,Earth*%
X129250000Y-83745000D02*
X129250000Y-90245000D01*
X121630000Y-74220000D02*
X121630000Y-80720000D01*
X129250000Y-71680000D02*
X129250000Y-74005000D01*
X130175000Y-75565000D02*
X129250000Y-76490000D01*
X114300000Y-61595000D02*
X112395000Y-59690000D01*
X121630000Y-83745000D02*
X121630000Y-90245000D01*
X129250000Y-76490000D02*
X129250000Y-78180000D01*
X129250000Y-90245000D02*
X130175000Y-91170000D01*
X114300000Y-64770000D02*
X114300000Y-61595000D01*
X129250000Y-78180000D02*
X129250000Y-83745000D01*
X114010000Y-83745000D02*
X114010000Y-90245000D01*
X129250000Y-74005000D02*
X129375378Y-74130378D01*
X114010000Y-71680000D02*
X114010000Y-78180000D01*
X114010000Y-78180000D02*
X114010000Y-83745000D01*
X130175000Y-91170000D02*
X130175000Y-95250000D01*
X121630000Y-80720000D02*
X121630000Y-83745000D01*
X121630000Y-90245000D02*
X121630000Y-93270000D01*
X121630000Y-93270000D02*
X121630000Y-99770000D01*
%TO.N,F1*%
X114935000Y-82550000D02*
X115570000Y-83185000D01*
X115570000Y-83185000D02*
X115570000Y-88265000D01*
X114935000Y-81280000D02*
X114935000Y-82550000D01*
X109510000Y-71680000D02*
X109510000Y-78180000D01*
%TO.N,F2*%
X124750000Y-71680000D02*
X124750000Y-78180000D01*
X125730000Y-70485000D02*
X125730000Y-70700000D01*
X125720000Y-63500000D02*
X125720000Y-70475000D01*
X124750000Y-80479000D02*
X125640500Y-81369500D01*
X125730000Y-70700000D02*
X124750000Y-71680000D01*
X124750000Y-78180000D02*
X124750000Y-80479000D01*
X125720000Y-70475000D02*
X125730000Y-70485000D01*
%TO.N,VCC*%
X110480000Y-67300000D02*
X110470000Y-67310000D01*
X121814511Y-58515489D02*
X125317489Y-58515489D01*
X125317489Y-58515489D02*
X126492000Y-59690000D01*
X120640000Y-59690000D02*
X121814511Y-58515489D01*
X110480000Y-63500000D02*
X110480000Y-67300000D01*
%TO.N,SCL*%
X116840000Y-60960000D02*
X116840000Y-60950000D01*
X117579520Y-68693803D02*
X116830717Y-67945000D01*
X111760000Y-90170000D02*
X109220000Y-92710000D01*
X116830717Y-60969283D02*
X116840000Y-60960000D01*
X117579520Y-68693803D02*
X117579520Y-72796377D01*
X118454511Y-87195989D02*
X118110000Y-87540500D01*
X118454511Y-87285489D02*
X118110000Y-87630000D01*
X116830717Y-67945000D02*
X116830717Y-60969283D01*
X118100000Y-59690000D02*
X116840000Y-60950000D01*
X112395000Y-87630000D02*
X111760000Y-88265000D01*
X117579520Y-72796377D02*
X118454511Y-73671368D01*
X112395000Y-87630000D02*
X112395000Y-87540500D01*
X118454511Y-73671368D02*
X118454511Y-87195989D01*
X111760000Y-88265000D02*
X111760000Y-89868143D01*
X111760000Y-89868143D02*
X111760000Y-90170000D01*
%TO.N,SDA*%
X110283844Y-85296156D02*
X110283844Y-87606199D01*
X110834511Y-84745489D02*
X110283844Y-85296156D01*
X111885489Y-62355489D02*
X111885489Y-80254125D01*
X110834511Y-81325103D02*
X110834511Y-84745489D01*
X112094897Y-58965489D02*
X111670489Y-59389897D01*
X111670489Y-59389897D02*
X111670489Y-62140489D01*
X114835489Y-58965489D02*
X112094897Y-58965489D01*
X115560000Y-59690000D02*
X114835489Y-58965489D01*
X111670489Y-62140489D02*
X111885489Y-62355489D01*
X111885489Y-80254125D02*
X111895489Y-80264125D01*
X111895489Y-80264125D02*
X110834511Y-81325103D01*
%TO.N,+5V*%
X130993489Y-67309654D02*
X126365000Y-71938143D01*
X122965970Y-95474030D02*
X122965970Y-95660970D01*
X126365000Y-92075000D02*
X122965970Y-95474030D01*
X132080000Y-59715000D02*
X130993489Y-60801511D01*
X126365000Y-71938143D02*
X126365000Y-92075000D01*
X130993489Y-60801511D02*
X130993489Y-67309654D01*
D22*
%TO.N,DE-*%
X124680000Y-107950000D02*
X123471624Y-107950000D01*
X127115489Y-95385489D02*
X127115489Y-71976724D01*
X123365969Y-104896633D02*
X123365969Y-99115009D01*
X125845000Y-106785000D02*
X124680000Y-107950000D01*
X127095489Y-95385489D02*
X127115489Y-95385489D01*
X129217213Y-69875000D02*
X132080000Y-69875000D01*
X123365969Y-99115009D02*
X127095489Y-95385489D01*
X122745489Y-107223865D02*
X122745489Y-105517113D01*
X123471624Y-107950000D02*
X122745489Y-107223865D01*
X122745489Y-105517113D02*
X123365969Y-104896633D01*
X127115489Y-71976724D02*
X129217213Y-69875000D01*
%TO.N,DE+*%
X127950489Y-76544511D02*
X132080000Y-72415000D01*
X127950489Y-95565489D02*
X127950489Y-76544511D01*
X127635000Y-98715756D02*
X127635000Y-95880978D01*
X127635000Y-95880978D02*
X127950489Y-95565489D01*
X125557878Y-100792878D02*
X127635000Y-98715756D01*
%TO.N,RA+*%
X124470000Y-102870000D02*
X123765489Y-103574511D01*
X129045371Y-99200371D02*
X125375741Y-102870000D01*
X123765489Y-106745489D02*
X123805000Y-106785000D01*
X125375741Y-102870000D02*
X124470000Y-102870000D01*
X131018489Y-97581511D02*
X129399629Y-99200371D01*
X123765489Y-103574511D02*
X123765489Y-106745489D01*
X132080000Y-74955000D02*
X131018489Y-76016511D01*
X131018489Y-76016511D02*
X131018489Y-97581511D01*
X129399629Y-99200371D02*
X129045371Y-99200371D01*
D21*
%TO.N,N*%
X117130000Y-68880000D02*
X117130000Y-74220000D01*
X118004991Y-79845009D02*
X117130000Y-80720000D01*
X117400000Y-74220000D02*
X118004991Y-74824991D01*
X113020000Y-64760000D02*
X114300000Y-66040000D01*
X114300000Y-66040000D02*
X114300000Y-67650300D01*
X115529700Y-68880000D02*
X117130000Y-68880000D01*
X113020000Y-63500000D02*
X113020000Y-64760000D01*
X114300000Y-67650300D02*
X115529700Y-68880000D01*
X118004991Y-74824991D02*
X118004991Y-79845009D01*
X117130000Y-74220000D02*
X117400000Y-74220000D01*
%TO.N,S*%
X115560000Y-63500000D02*
X115560000Y-65479561D01*
X119380000Y-68355011D02*
X119380000Y-66675000D01*
X115560000Y-65479561D02*
X116106217Y-66025778D01*
X119380000Y-66675000D02*
X118745000Y-66040000D01*
X119380000Y-68355011D02*
X119380000Y-81915000D01*
X119380000Y-91020000D02*
X117130000Y-93270000D01*
X119380000Y-81915000D02*
X119380000Y-91020000D01*
X117130000Y-93270000D02*
X117130000Y-99770000D01*
%TO.N,W*%
X112345009Y-80909991D02*
X111760000Y-81495000D01*
X112395000Y-69850000D02*
X112619989Y-69850000D01*
X112345009Y-69899991D02*
X112395000Y-69850000D01*
X109510000Y-83745000D02*
X109510000Y-90245000D01*
X124460000Y-69215000D02*
X124460000Y-67320000D01*
X111760000Y-81495000D02*
X111760000Y-83185000D01*
X112345009Y-69899991D02*
X112345009Y-80909991D01*
X124460000Y-67320000D02*
X120640000Y-63500000D01*
%TO.N,SHIFT*%
X116840000Y-76835000D02*
X115334511Y-75329511D01*
X115334511Y-75329511D02*
X115334511Y-70085489D01*
X117130000Y-83745000D02*
X117130000Y-90245000D01*
X117130000Y-83745000D02*
X115805489Y-82420489D01*
X115805489Y-77869511D02*
X116840000Y-76835000D01*
X115334511Y-70085489D02*
X115570000Y-69850000D01*
X115805489Y-82420489D02*
X115805489Y-77869511D01*
%TO.N,Net-(J3-Pad1)*%
X113030000Y-99690000D02*
X113030000Y-102235000D01*
D22*
%TO.N,RA1-*%
X111125000Y-69215000D02*
X111125000Y-80010000D01*
X112485181Y-81824819D02*
X112485181Y-84057968D01*
X114179511Y-92536333D02*
X114179511Y-102970489D01*
X113094511Y-87830248D02*
X112677078Y-88247681D01*
X114179511Y-102970489D02*
X112905000Y-104245000D01*
X111125000Y-80010000D02*
X109855000Y-81280000D01*
X113069509Y-81240491D02*
X112485181Y-81824819D01*
X112677078Y-88247681D02*
X112677078Y-91033900D01*
X112677078Y-91033900D02*
X114179511Y-92536333D01*
X113094511Y-84667298D02*
X113094511Y-87830248D01*
X113069509Y-80645000D02*
X113069509Y-81240491D01*
X112485181Y-84057968D02*
X113094511Y-84667298D01*
%TO.N,DE1-*%
X109430458Y-69921755D02*
X108210489Y-71141724D01*
X108141031Y-101156031D02*
X108141031Y-81088969D01*
X108141031Y-81088969D02*
X108585000Y-80645000D01*
X108210489Y-80270489D02*
X108585000Y-80645000D01*
X108585000Y-101600000D02*
X108141031Y-101156031D01*
X108542878Y-103547122D02*
X108647122Y-103547122D01*
X110418245Y-69921755D02*
X109430458Y-69921755D01*
X108210489Y-71141724D02*
X108210489Y-80270489D01*
X108647122Y-103547122D02*
X111885000Y-106785000D01*
%TO.N,DE1+*%
X118090000Y-71540980D02*
X118304020Y-71755000D01*
X107741511Y-101756511D02*
X107741511Y-76016511D01*
X107741511Y-101756511D02*
X110230000Y-104245000D01*
X110230000Y-104245000D02*
X110865000Y-104245000D01*
X118090000Y-67310000D02*
X118090000Y-71540980D01*
X107741511Y-76016511D02*
X106680000Y-74955000D01*
%TO.N,RA1+*%
X117475000Y-101600000D02*
X116205000Y-102870000D01*
X116205000Y-102870000D02*
X116205000Y-105410000D01*
X119830001Y-68109999D02*
X119830001Y-78465501D01*
X120104500Y-78740000D02*
X120104500Y-98970500D01*
X119830001Y-78465501D02*
X120104500Y-78740000D01*
X120630000Y-67310000D02*
X119830001Y-68109999D01*
X120104500Y-98970500D02*
X117475000Y-101600000D01*
%TD*%
%TA.AperFunction,Conductor*%
%TO.N,Earth*%
G36*
X121674032Y-83445924D02*
G01*
X121719095Y-83474885D01*
X122850290Y-84606080D01*
X122862670Y-84612840D01*
X122870320Y-84607113D01*
X122975205Y-84435958D01*
X122979687Y-84427163D01*
X123066733Y-84217014D01*
X123069902Y-84207260D01*
X123109975Y-84148654D01*
X123175371Y-84121016D01*
X123245328Y-84133121D01*
X123297635Y-84181126D01*
X123309568Y-84207255D01*
X123309741Y-84207788D01*
X123310895Y-84212594D01*
X123332696Y-84265227D01*
X123399772Y-84427163D01*
X123401760Y-84431963D01*
X123404346Y-84436183D01*
X123523241Y-84630202D01*
X123523245Y-84630208D01*
X123525824Y-84634416D01*
X123680031Y-84814969D01*
X123860584Y-84969176D01*
X123864792Y-84971755D01*
X123864798Y-84971759D01*
X124056335Y-85089133D01*
X124103966Y-85141781D01*
X124116500Y-85196566D01*
X124116500Y-88793434D01*
X124096498Y-88861555D01*
X124056335Y-88900867D01*
X123864798Y-89018241D01*
X123864792Y-89018245D01*
X123860584Y-89020824D01*
X123680031Y-89175031D01*
X123525824Y-89355584D01*
X123523245Y-89359792D01*
X123523241Y-89359798D01*
X123404346Y-89553817D01*
X123401760Y-89558037D01*
X123399867Y-89562607D01*
X123399865Y-89562611D01*
X123375909Y-89620447D01*
X123310895Y-89777406D01*
X123309741Y-89782212D01*
X123309568Y-89782745D01*
X123269494Y-89841349D01*
X123204096Y-89868985D01*
X123134140Y-89856877D01*
X123081835Y-89808870D01*
X123069902Y-89782740D01*
X123066733Y-89772986D01*
X122979687Y-89562837D01*
X122975205Y-89554042D01*
X122872568Y-89386555D01*
X122862110Y-89377093D01*
X122853334Y-89380876D01*
X122002022Y-90232188D01*
X121994408Y-90246132D01*
X121994539Y-90247965D01*
X121998790Y-90254580D01*
X122850290Y-91106080D01*
X122862670Y-91112840D01*
X122870320Y-91107113D01*
X122975205Y-90935958D01*
X122979687Y-90927163D01*
X123066733Y-90717014D01*
X123069902Y-90707260D01*
X123109975Y-90648654D01*
X123175371Y-90621016D01*
X123245328Y-90633121D01*
X123297635Y-90681126D01*
X123309568Y-90707255D01*
X123309741Y-90707788D01*
X123310895Y-90712594D01*
X123339582Y-90781851D01*
X123399772Y-90927163D01*
X123401760Y-90931963D01*
X123404346Y-90936183D01*
X123523241Y-91130202D01*
X123523245Y-91130208D01*
X123525824Y-91134416D01*
X123680031Y-91314969D01*
X123683787Y-91318177D01*
X123704618Y-91335968D01*
X123860584Y-91469176D01*
X123864792Y-91471755D01*
X123864798Y-91471759D01*
X124058817Y-91590654D01*
X124063037Y-91593240D01*
X124067607Y-91595133D01*
X124067611Y-91595135D01*
X124277833Y-91682211D01*
X124282406Y-91684105D01*
X124362609Y-91703360D01*
X124508476Y-91738380D01*
X124508482Y-91738381D01*
X124513289Y-91739535D01*
X124750000Y-91758165D01*
X124986711Y-91739535D01*
X124991518Y-91738381D01*
X124991524Y-91738380D01*
X125137391Y-91703360D01*
X125217594Y-91684105D01*
X125222167Y-91682211D01*
X125432389Y-91595135D01*
X125432393Y-91595133D01*
X125436963Y-91593240D01*
X125441183Y-91590654D01*
X125539665Y-91530304D01*
X125608199Y-91511766D01*
X125675875Y-91533222D01*
X125721208Y-91587861D01*
X125731500Y-91637737D01*
X125731500Y-91760405D01*
X125711498Y-91828526D01*
X125694595Y-91849500D01*
X122796730Y-94747365D01*
X122733835Y-94781515D01*
X122683682Y-94792176D01*
X122677649Y-94794862D01*
X122515248Y-94867167D01*
X122515246Y-94867168D01*
X122509218Y-94869852D01*
X122354717Y-94982104D01*
X122350296Y-94987014D01*
X122350295Y-94987015D01*
X122236462Y-95113440D01*
X122226930Y-95124026D01*
X122131443Y-95289414D01*
X122072428Y-95471042D01*
X122071738Y-95477603D01*
X122071738Y-95477605D01*
X122066693Y-95525609D01*
X122052466Y-95660970D01*
X122053156Y-95667535D01*
X122067187Y-95801029D01*
X122072428Y-95850898D01*
X122131443Y-96032526D01*
X122226930Y-96197914D01*
X122231348Y-96202821D01*
X122231349Y-96202822D01*
X122278585Y-96255283D01*
X122354717Y-96339836D01*
X122509218Y-96452088D01*
X122515246Y-96454772D01*
X122515248Y-96454773D01*
X122660170Y-96519296D01*
X122683682Y-96529764D01*
X122757714Y-96545500D01*
X122864026Y-96568098D01*
X122864031Y-96568098D01*
X122870483Y-96569470D01*
X123061457Y-96569470D01*
X123067909Y-96568098D01*
X123067914Y-96568098D01*
X123174226Y-96545500D01*
X123248258Y-96529764D01*
X123271770Y-96519296D01*
X123416692Y-96454773D01*
X123416694Y-96454772D01*
X123422722Y-96452088D01*
X123577223Y-96339836D01*
X123653355Y-96255283D01*
X123700591Y-96202822D01*
X123700592Y-96202821D01*
X123705010Y-96197914D01*
X123800497Y-96032526D01*
X123859512Y-95850898D01*
X123864754Y-95801029D01*
X123878784Y-95667535D01*
X123879474Y-95660970D01*
X123873630Y-95605369D01*
X123866303Y-95535651D01*
X123879075Y-95465813D01*
X123902518Y-95433386D01*
X126291894Y-93044010D01*
X126354206Y-93009984D01*
X126425021Y-93015049D01*
X126481857Y-93057596D01*
X126506668Y-93124116D01*
X126506989Y-93133105D01*
X126506989Y-95061250D01*
X126486987Y-95129371D01*
X126470084Y-95150345D01*
X122969735Y-98650694D01*
X122957344Y-98661561D01*
X122931982Y-98681022D01*
X122907495Y-98712934D01*
X122907492Y-98712937D01*
X122907486Y-98712945D01*
X122874943Y-98755356D01*
X122834445Y-98808133D01*
X122831285Y-98815763D01*
X122785517Y-98926257D01*
X122775889Y-98949500D01*
X122773131Y-98956159D01*
X122772186Y-98963340D01*
X122739830Y-99019380D01*
X120768920Y-100990290D01*
X120762160Y-101002670D01*
X120767887Y-101010320D01*
X120939042Y-101115205D01*
X120947837Y-101119687D01*
X121157988Y-101206734D01*
X121167373Y-101209783D01*
X121388554Y-101262885D01*
X121398301Y-101264428D01*
X121625070Y-101282275D01*
X121634930Y-101282275D01*
X121861699Y-101264428D01*
X121871446Y-101262885D01*
X122092627Y-101209783D01*
X122102012Y-101206734D01*
X122312163Y-101119687D01*
X122320958Y-101115205D01*
X122514899Y-100996357D01*
X122522890Y-100990552D01*
X122549639Y-100967706D01*
X122614428Y-100938675D01*
X122684628Y-100949280D01*
X122737951Y-100996155D01*
X122757469Y-101063517D01*
X122757469Y-104592394D01*
X122737467Y-104660515D01*
X122720564Y-104681489D01*
X122349255Y-105052798D01*
X122336864Y-105063665D01*
X122311502Y-105083126D01*
X122287015Y-105115038D01*
X122287012Y-105115041D01*
X122213965Y-105210237D01*
X122193812Y-105258891D01*
X122164101Y-105330620D01*
X122158534Y-105344061D01*
X122152651Y-105358263D01*
X122136989Y-105477228D01*
X122136989Y-105477233D01*
X122131739Y-105517113D01*
X122132817Y-105525301D01*
X122135911Y-105548803D01*
X122136989Y-105565249D01*
X122136989Y-107175729D01*
X122135911Y-107192172D01*
X122131739Y-107223865D01*
X122136989Y-107263745D01*
X122136989Y-107263750D01*
X122143937Y-107316524D01*
X122152651Y-107382716D01*
X122213965Y-107530741D01*
X122218992Y-107537292D01*
X122218993Y-107537294D01*
X122287009Y-107625934D01*
X122287015Y-107625940D01*
X122311502Y-107657852D01*
X122318052Y-107662878D01*
X122318053Y-107662879D01*
X122336865Y-107677314D01*
X122349255Y-107688180D01*
X123007305Y-108346229D01*
X123018173Y-108358621D01*
X123037637Y-108383987D01*
X123044183Y-108389010D01*
X123044186Y-108389013D01*
X123069551Y-108408476D01*
X123069553Y-108408477D01*
X123158196Y-108476496D01*
X123164748Y-108481524D01*
X123172374Y-108484683D01*
X123172376Y-108484684D01*
X123238760Y-108512181D01*
X123312773Y-108542838D01*
X123320960Y-108543916D01*
X123320961Y-108543916D01*
X123332166Y-108545391D01*
X123363362Y-108549498D01*
X123431739Y-108558500D01*
X123431742Y-108558500D01*
X123431750Y-108558501D01*
X123463435Y-108562672D01*
X123471624Y-108563750D01*
X123503317Y-108559578D01*
X123519760Y-108558500D01*
X124631864Y-108558500D01*
X124648307Y-108559578D01*
X124680000Y-108563750D01*
X124688189Y-108562672D01*
X124719874Y-108558501D01*
X124719884Y-108558500D01*
X124719885Y-108558500D01*
X124719901Y-108558498D01*
X124819457Y-108545391D01*
X124830664Y-108543916D01*
X124830666Y-108543915D01*
X124838851Y-108542838D01*
X124986876Y-108481524D01*
X125082072Y-108408477D01*
X125082075Y-108408474D01*
X125113987Y-108383987D01*
X125119017Y-108377432D01*
X125133452Y-108358621D01*
X125144319Y-108346230D01*
X125436528Y-108054021D01*
X125498840Y-108019995D01*
X125558234Y-108021409D01*
X125618571Y-108037576D01*
X125618573Y-108037576D01*
X125623886Y-108039000D01*
X125845000Y-108058345D01*
X126066114Y-108039000D01*
X126071427Y-108037576D01*
X126071429Y-108037576D01*
X126275200Y-107982976D01*
X126275202Y-107982975D01*
X126280510Y-107981553D01*
X126286502Y-107978759D01*
X126476686Y-107890075D01*
X126476691Y-107890072D01*
X126481673Y-107887749D01*
X126546521Y-107842342D01*
X127192213Y-107842342D01*
X127201509Y-107854357D01*
X127244069Y-107884158D01*
X127253565Y-107889641D01*
X127444680Y-107978759D01*
X127454972Y-107982505D01*
X127658660Y-108037083D01*
X127669453Y-108038986D01*
X127879525Y-108057365D01*
X127890475Y-108057365D01*
X128100547Y-108038986D01*
X128111340Y-108037083D01*
X128315028Y-107982505D01*
X128325320Y-107978759D01*
X128516435Y-107889641D01*
X128525931Y-107884158D01*
X128569329Y-107853770D01*
X128577704Y-107843293D01*
X128570635Y-107829845D01*
X127897812Y-107157022D01*
X127883868Y-107149408D01*
X127882035Y-107149539D01*
X127875420Y-107153790D01*
X127198643Y-107830567D01*
X127192213Y-107842342D01*
X126546521Y-107842342D01*
X126583313Y-107816580D01*
X126658979Y-107763598D01*
X126658982Y-107763596D01*
X126663490Y-107760439D01*
X126820439Y-107603490D01*
X126871379Y-107530741D01*
X126944592Y-107426181D01*
X126944593Y-107426179D01*
X126947749Y-107421672D01*
X126950072Y-107416691D01*
X126950078Y-107416680D01*
X126989591Y-107331944D01*
X127014690Y-107296100D01*
X127512978Y-106797812D01*
X127519356Y-106786132D01*
X128249408Y-106786132D01*
X128249539Y-106787965D01*
X128253790Y-106794580D01*
X128930567Y-107471357D01*
X128942342Y-107477787D01*
X128954357Y-107468491D01*
X128984158Y-107425931D01*
X128989641Y-107416435D01*
X129078759Y-107225320D01*
X129082505Y-107215028D01*
X129137083Y-107011340D01*
X129138986Y-107000547D01*
X129157365Y-106790475D01*
X129157365Y-106779525D01*
X129138986Y-106569453D01*
X129137083Y-106558660D01*
X129082505Y-106354972D01*
X129078759Y-106344680D01*
X128989641Y-106153565D01*
X128984158Y-106144069D01*
X128953770Y-106100671D01*
X128943293Y-106092296D01*
X128929845Y-106099365D01*
X128257022Y-106772188D01*
X128249408Y-106786132D01*
X127519356Y-106786132D01*
X127520592Y-106783868D01*
X127520461Y-106782035D01*
X127516210Y-106775420D01*
X127014690Y-106273900D01*
X126989591Y-106238056D01*
X126950078Y-106153320D01*
X126950072Y-106153309D01*
X126947749Y-106148328D01*
X126944592Y-106143819D01*
X126823598Y-105971021D01*
X126823596Y-105971018D01*
X126820439Y-105966510D01*
X126663490Y-105809561D01*
X126658982Y-105806404D01*
X126658979Y-105806402D01*
X126541916Y-105724433D01*
X126497588Y-105668975D01*
X126490279Y-105598356D01*
X126522310Y-105534996D01*
X126583512Y-105499011D01*
X126636071Y-105497135D01*
X126638571Y-105497576D01*
X126643886Y-105499000D01*
X126865000Y-105518345D01*
X126870475Y-105517866D01*
X127080642Y-105499479D01*
X127080645Y-105499478D01*
X127086114Y-105499000D01*
X127091421Y-105497578D01*
X127095095Y-105496930D01*
X127165654Y-105504797D01*
X127220759Y-105549563D01*
X127242913Y-105617015D01*
X127225084Y-105685736D01*
X127210771Y-105701111D01*
X127211982Y-105702079D01*
X127192296Y-105726707D01*
X127199365Y-105740155D01*
X127872188Y-106412978D01*
X127886132Y-106420592D01*
X127887965Y-106420461D01*
X127894580Y-106416210D01*
X128571357Y-105739433D01*
X128577787Y-105727658D01*
X128569232Y-105716600D01*
X128543369Y-105650482D01*
X128557357Y-105580877D01*
X128606756Y-105529885D01*
X128668889Y-105513500D01*
X129713134Y-105513500D01*
X129775316Y-105506745D01*
X129911705Y-105455615D01*
X130028261Y-105368261D01*
X130115615Y-105251705D01*
X130166745Y-105115316D01*
X130173500Y-105053134D01*
X130173500Y-103436866D01*
X130166745Y-103374684D01*
X130115615Y-103238295D01*
X130028261Y-103121739D01*
X129911705Y-103034385D01*
X129775316Y-102983255D01*
X129713134Y-102976500D01*
X128096866Y-102976500D01*
X128034684Y-102983255D01*
X127898295Y-103034385D01*
X127781739Y-103121739D01*
X127764000Y-103145408D01*
X127748431Y-103166182D01*
X127691571Y-103208696D01*
X127620752Y-103213721D01*
X127575334Y-103193829D01*
X127506182Y-103145408D01*
X127506180Y-103145407D01*
X127501673Y-103142251D01*
X127496691Y-103139928D01*
X127496686Y-103139925D01*
X127305492Y-103050770D01*
X127305491Y-103050769D01*
X127300510Y-103048447D01*
X127295202Y-103047025D01*
X127295200Y-103047024D01*
X127091429Y-102992424D01*
X127091427Y-102992424D01*
X127086114Y-102991000D01*
X126865000Y-102971655D01*
X126643886Y-102991000D01*
X126638573Y-102992424D01*
X126638571Y-102992424D01*
X126434800Y-103047024D01*
X126434798Y-103047025D01*
X126429490Y-103048447D01*
X126424508Y-103050770D01*
X126424503Y-103050772D01*
X126380750Y-103071175D01*
X126310559Y-103081837D01*
X126245746Y-103052858D01*
X126206889Y-102993439D01*
X126206325Y-102922444D01*
X126238404Y-102867886D01*
X129260515Y-99845776D01*
X129322827Y-99811750D01*
X129349610Y-99808871D01*
X129351493Y-99808871D01*
X129367936Y-99809949D01*
X129399629Y-99814121D01*
X129407818Y-99813043D01*
X129439503Y-99808872D01*
X129439513Y-99808871D01*
X129439514Y-99808871D01*
X129539086Y-99795762D01*
X129550293Y-99794287D01*
X129550295Y-99794286D01*
X129558480Y-99793209D01*
X129706505Y-99731895D01*
X129801701Y-99658848D01*
X129801704Y-99658845D01*
X129833616Y-99634358D01*
X129838646Y-99627803D01*
X129853081Y-99608992D01*
X129863948Y-99596601D01*
X131414723Y-98045826D01*
X131427114Y-98034959D01*
X131445926Y-98020524D01*
X131452476Y-98015498D01*
X131476963Y-97983586D01*
X131476967Y-97983582D01*
X131550013Y-97888387D01*
X131611327Y-97740362D01*
X131615937Y-97705347D01*
X131626989Y-97621396D01*
X131626989Y-97621391D01*
X131632239Y-97581511D01*
X131628067Y-97549818D01*
X131626989Y-97533375D01*
X131626989Y-96671500D01*
X131646991Y-96603379D01*
X131700647Y-96556886D01*
X131752989Y-96545500D01*
X132716000Y-96545500D01*
X132784121Y-96565502D01*
X132830614Y-96619158D01*
X132842000Y-96671500D01*
X132842000Y-114936000D01*
X132821998Y-115004121D01*
X132768342Y-115050614D01*
X132716000Y-115062000D01*
X106044000Y-115062000D01*
X105975879Y-115041998D01*
X105929386Y-114988342D01*
X105918000Y-114936000D01*
X105918000Y-96519296D01*
X105938002Y-96451175D01*
X105991658Y-96404682D01*
X106061932Y-96394578D01*
X106097250Y-96405101D01*
X106196056Y-96451175D01*
X106243804Y-96473440D01*
X106249112Y-96474862D01*
X106249114Y-96474863D01*
X106314949Y-96492503D01*
X106458537Y-96530978D01*
X106680000Y-96550353D01*
X106901463Y-96530978D01*
X106906776Y-96529554D01*
X106906784Y-96529553D01*
X106974399Y-96511435D01*
X107045375Y-96513124D01*
X107104171Y-96552917D01*
X107132120Y-96618181D01*
X107133011Y-96633141D01*
X107133011Y-101708375D01*
X107131933Y-101724818D01*
X107127761Y-101756511D01*
X107133011Y-101796391D01*
X107133011Y-101796396D01*
X107141838Y-101863444D01*
X107148673Y-101915362D01*
X107209987Y-102063387D01*
X107215014Y-102069938D01*
X107215015Y-102069940D01*
X107283031Y-102158580D01*
X107283037Y-102158586D01*
X107307524Y-102190498D01*
X107314079Y-102195528D01*
X107332890Y-102209963D01*
X107345281Y-102220830D01*
X107876017Y-102751566D01*
X107910043Y-102813878D01*
X107904978Y-102884693D01*
X107880560Y-102924970D01*
X107803838Y-103010178D01*
X107708351Y-103175566D01*
X107649336Y-103357194D01*
X107629374Y-103547122D01*
X107649336Y-103737050D01*
X107708351Y-103918678D01*
X107803838Y-104084066D01*
X107931625Y-104225988D01*
X108086126Y-104338240D01*
X108092154Y-104340924D01*
X108092156Y-104340925D01*
X108254559Y-104413231D01*
X108260590Y-104415916D01*
X108353990Y-104435769D01*
X108440934Y-104454250D01*
X108440939Y-104454250D01*
X108447391Y-104455622D01*
X108638365Y-104455622D01*
X108638365Y-104457545D01*
X108699112Y-104468650D01*
X108731548Y-104492097D01*
X109585160Y-105345709D01*
X109619186Y-105408021D01*
X109614121Y-105478836D01*
X109571574Y-105535672D01*
X109528676Y-105556511D01*
X109414800Y-105587024D01*
X109414798Y-105587025D01*
X109409490Y-105588447D01*
X109404510Y-105590769D01*
X109404508Y-105590770D01*
X109213315Y-105679925D01*
X109213310Y-105679928D01*
X109208328Y-105682251D01*
X109203821Y-105685407D01*
X109203819Y-105685408D01*
X109031021Y-105806402D01*
X109031018Y-105806404D01*
X109026510Y-105809561D01*
X108869561Y-105966510D01*
X108866404Y-105971018D01*
X108866402Y-105971021D01*
X108745408Y-106143819D01*
X108742251Y-106148328D01*
X108739928Y-106153310D01*
X108739925Y-106153315D01*
X108663538Y-106317128D01*
X108648447Y-106349490D01*
X108647025Y-106354798D01*
X108647024Y-106354800D01*
X108629430Y-106420461D01*
X108591000Y-106563886D01*
X108571655Y-106785000D01*
X108591000Y-107006114D01*
X108592424Y-107011427D01*
X108592424Y-107011429D01*
X108631436Y-107157022D01*
X108648447Y-107220510D01*
X108650769Y-107225490D01*
X108650770Y-107225492D01*
X108739925Y-107416685D01*
X108739928Y-107416690D01*
X108742251Y-107421672D01*
X108745407Y-107426179D01*
X108745408Y-107426181D01*
X108818622Y-107530741D01*
X108869561Y-107603490D01*
X109026510Y-107760439D01*
X109031018Y-107763596D01*
X109031021Y-107763598D01*
X109106687Y-107816580D01*
X109208327Y-107887749D01*
X109213309Y-107890072D01*
X109213314Y-107890075D01*
X109403498Y-107978759D01*
X109409490Y-107981553D01*
X109414798Y-107982975D01*
X109414800Y-107982976D01*
X109618571Y-108037576D01*
X109618573Y-108037576D01*
X109623886Y-108039000D01*
X109845000Y-108058345D01*
X110066114Y-108039000D01*
X110071427Y-108037576D01*
X110071429Y-108037576D01*
X110275200Y-107982976D01*
X110275202Y-107982975D01*
X110280510Y-107981553D01*
X110286502Y-107978759D01*
X110476686Y-107890075D01*
X110476691Y-107890072D01*
X110481673Y-107887749D01*
X110583313Y-107816580D01*
X110658979Y-107763598D01*
X110658982Y-107763596D01*
X110663490Y-107760439D01*
X110775905Y-107648024D01*
X110838217Y-107613998D01*
X110909032Y-107619063D01*
X110954095Y-107648024D01*
X111066510Y-107760439D01*
X111071018Y-107763596D01*
X111071021Y-107763598D01*
X111146687Y-107816580D01*
X111248327Y-107887749D01*
X111253309Y-107890072D01*
X111253314Y-107890075D01*
X111443498Y-107978759D01*
X111449490Y-107981553D01*
X111454798Y-107982975D01*
X111454800Y-107982976D01*
X111658571Y-108037576D01*
X111658573Y-108037576D01*
X111663886Y-108039000D01*
X111885000Y-108058345D01*
X112106114Y-108039000D01*
X112111427Y-108037576D01*
X112111429Y-108037576D01*
X112315200Y-107982976D01*
X112315202Y-107982975D01*
X112320510Y-107981553D01*
X112326502Y-107978759D01*
X112516686Y-107890075D01*
X112516691Y-107890072D01*
X112521673Y-107887749D01*
X112586521Y-107842342D01*
X113232213Y-107842342D01*
X113241509Y-107854357D01*
X113284069Y-107884158D01*
X113293565Y-107889641D01*
X113484680Y-107978759D01*
X113494972Y-107982505D01*
X113698660Y-108037083D01*
X113709453Y-108038986D01*
X113919525Y-108057365D01*
X113930475Y-108057365D01*
X114140547Y-108038986D01*
X114151340Y-108037083D01*
X114355028Y-107982505D01*
X114365320Y-107978759D01*
X114556435Y-107889641D01*
X114565931Y-107884158D01*
X114609329Y-107853770D01*
X114617704Y-107843293D01*
X114610635Y-107829845D01*
X113937812Y-107157022D01*
X113923868Y-107149408D01*
X113922035Y-107149539D01*
X113915420Y-107153790D01*
X113238643Y-107830567D01*
X113232213Y-107842342D01*
X112586521Y-107842342D01*
X112623313Y-107816580D01*
X112698979Y-107763598D01*
X112698982Y-107763596D01*
X112703490Y-107760439D01*
X112860439Y-107603490D01*
X112911379Y-107530741D01*
X112984592Y-107426181D01*
X112984593Y-107426179D01*
X112987749Y-107421672D01*
X112990072Y-107416691D01*
X112990078Y-107416680D01*
X113029591Y-107331944D01*
X113054690Y-107296100D01*
X113552978Y-106797812D01*
X113559356Y-106786132D01*
X114289408Y-106786132D01*
X114289539Y-106787965D01*
X114293790Y-106794580D01*
X114970567Y-107471357D01*
X114982342Y-107477787D01*
X114994357Y-107468491D01*
X115024158Y-107425931D01*
X115029641Y-107416435D01*
X115118759Y-107225320D01*
X115122505Y-107215028D01*
X115177083Y-107011340D01*
X115178986Y-107000547D01*
X115197365Y-106790475D01*
X115197365Y-106779525D01*
X115178986Y-106569453D01*
X115177083Y-106558660D01*
X115122505Y-106354972D01*
X115118759Y-106344680D01*
X115029641Y-106153565D01*
X115024158Y-106144069D01*
X114993770Y-106100671D01*
X114983293Y-106092296D01*
X114969845Y-106099365D01*
X114297022Y-106772188D01*
X114289408Y-106786132D01*
X113559356Y-106786132D01*
X113560592Y-106783868D01*
X113560461Y-106782035D01*
X113556210Y-106775420D01*
X113054690Y-106273900D01*
X113029591Y-106238056D01*
X112990078Y-106153320D01*
X112990072Y-106153309D01*
X112987749Y-106148328D01*
X112984592Y-106143819D01*
X112863598Y-105971021D01*
X112863596Y-105971018D01*
X112860439Y-105966510D01*
X112703490Y-105809561D01*
X112698982Y-105806404D01*
X112698979Y-105806402D01*
X112581916Y-105724433D01*
X112537588Y-105668975D01*
X112530279Y-105598356D01*
X112562310Y-105534996D01*
X112623512Y-105499011D01*
X112676071Y-105497135D01*
X112678571Y-105497576D01*
X112683886Y-105499000D01*
X112905000Y-105518345D01*
X112910475Y-105517866D01*
X113120642Y-105499479D01*
X113120645Y-105499478D01*
X113126114Y-105499000D01*
X113131421Y-105497578D01*
X113135095Y-105496930D01*
X113205654Y-105504797D01*
X113260759Y-105549563D01*
X113282913Y-105617015D01*
X113265084Y-105685736D01*
X113250771Y-105701111D01*
X113251982Y-105702079D01*
X113232296Y-105726707D01*
X113239365Y-105740155D01*
X113912188Y-106412978D01*
X113926132Y-106420592D01*
X113927965Y-106420461D01*
X113934580Y-106416210D01*
X114611357Y-105739433D01*
X114617787Y-105727658D01*
X114609232Y-105716600D01*
X114583369Y-105650482D01*
X114597357Y-105580877D01*
X114646756Y-105529885D01*
X114708889Y-105513500D01*
X115191832Y-105513500D01*
X115259953Y-105533502D01*
X115306446Y-105587158D01*
X115311663Y-105600559D01*
X115370473Y-105781556D01*
X115465960Y-105946944D01*
X115593747Y-106088866D01*
X115748248Y-106201118D01*
X115754276Y-106203802D01*
X115754278Y-106203803D01*
X115916681Y-106276109D01*
X115922712Y-106278794D01*
X116016112Y-106298647D01*
X116103056Y-106317128D01*
X116103061Y-106317128D01*
X116109513Y-106318500D01*
X116300487Y-106318500D01*
X116306939Y-106317128D01*
X116306944Y-106317128D01*
X116393887Y-106298647D01*
X116487288Y-106278794D01*
X116493319Y-106276109D01*
X116655722Y-106203803D01*
X116655724Y-106203802D01*
X116661752Y-106201118D01*
X116816253Y-106088866D01*
X116944040Y-105946944D01*
X117039527Y-105781556D01*
X117098542Y-105599928D01*
X117100545Y-105580877D01*
X117117814Y-105416565D01*
X117118504Y-105410000D01*
X117113927Y-105366451D01*
X117099232Y-105226635D01*
X117099232Y-105226633D01*
X117098542Y-105220072D01*
X117039527Y-105038444D01*
X116944040Y-104873056D01*
X116845864Y-104764020D01*
X116815146Y-104700013D01*
X116813500Y-104679710D01*
X116813500Y-103174239D01*
X116833502Y-103106118D01*
X116850405Y-103085144D01*
X119936785Y-99998764D01*
X119999097Y-99964738D01*
X120069912Y-99969803D01*
X120126748Y-100012350D01*
X120148399Y-100058445D01*
X120190217Y-100232627D01*
X120193266Y-100242012D01*
X120280313Y-100452163D01*
X120284795Y-100460958D01*
X120387432Y-100628445D01*
X120397890Y-100637907D01*
X120406666Y-100634124D01*
X122491080Y-98549710D01*
X122497840Y-98537330D01*
X122492113Y-98529680D01*
X122320958Y-98424795D01*
X122312163Y-98420313D01*
X122102012Y-98333266D01*
X122092627Y-98330217D01*
X121871446Y-98277115D01*
X121861699Y-98275572D01*
X121634930Y-98257725D01*
X121625070Y-98257725D01*
X121398301Y-98275572D01*
X121388554Y-98277115D01*
X121167373Y-98330217D01*
X121157988Y-98333266D01*
X120947837Y-98420313D01*
X120939052Y-98424790D01*
X120904835Y-98445758D01*
X120836301Y-98464296D01*
X120768625Y-98442840D01*
X120723292Y-98388201D01*
X120713000Y-98338325D01*
X120713000Y-94701675D01*
X120733002Y-94633554D01*
X120786658Y-94587061D01*
X120856932Y-94576957D01*
X120904835Y-94594242D01*
X120939052Y-94615210D01*
X120947837Y-94619687D01*
X121157988Y-94706734D01*
X121167373Y-94709783D01*
X121388554Y-94762885D01*
X121398301Y-94764428D01*
X121625070Y-94782275D01*
X121634930Y-94782275D01*
X121861699Y-94764428D01*
X121871446Y-94762885D01*
X122092627Y-94709783D01*
X122102012Y-94706734D01*
X122312163Y-94619687D01*
X122320958Y-94615205D01*
X122488445Y-94512568D01*
X122497907Y-94502110D01*
X122494124Y-94493334D01*
X121359885Y-93359095D01*
X121325859Y-93296783D01*
X121327694Y-93271132D01*
X121994408Y-93271132D01*
X121994539Y-93272965D01*
X121998790Y-93279580D01*
X122850290Y-94131080D01*
X122862670Y-94137840D01*
X122870320Y-94132113D01*
X122975205Y-93960958D01*
X122979687Y-93952163D01*
X123066734Y-93742012D01*
X123069783Y-93732627D01*
X123122885Y-93511446D01*
X123124428Y-93501699D01*
X123142275Y-93274930D01*
X123142275Y-93265070D01*
X123124428Y-93038301D01*
X123122885Y-93028554D01*
X123069783Y-92807373D01*
X123066734Y-92797988D01*
X122979687Y-92587837D01*
X122975205Y-92579042D01*
X122872568Y-92411555D01*
X122862110Y-92402093D01*
X122853334Y-92405876D01*
X122002022Y-93257188D01*
X121994408Y-93271132D01*
X121327694Y-93271132D01*
X121330924Y-93225968D01*
X121359885Y-93180905D01*
X122491080Y-92049710D01*
X122497840Y-92037330D01*
X122492113Y-92029680D01*
X122320958Y-91924795D01*
X122312163Y-91920313D01*
X122200133Y-91873909D01*
X122144852Y-91829361D01*
X122122431Y-91761997D01*
X122139989Y-91693206D01*
X122191951Y-91644828D01*
X122200133Y-91641091D01*
X122312163Y-91594687D01*
X122320958Y-91590205D01*
X122488445Y-91487568D01*
X122497907Y-91477110D01*
X122494124Y-91468334D01*
X121359885Y-90334095D01*
X121325859Y-90271783D01*
X121330924Y-90200968D01*
X121359885Y-90155905D01*
X122491080Y-89024710D01*
X122497840Y-89012330D01*
X122492113Y-89004680D01*
X122320958Y-88899795D01*
X122312163Y-88895313D01*
X122102012Y-88808266D01*
X122092627Y-88805217D01*
X121871446Y-88752115D01*
X121861699Y-88750572D01*
X121634930Y-88732725D01*
X121625070Y-88732725D01*
X121398301Y-88750572D01*
X121388554Y-88752115D01*
X121167373Y-88805217D01*
X121157988Y-88808266D01*
X120947837Y-88895313D01*
X120939052Y-88899790D01*
X120904835Y-88920758D01*
X120836301Y-88939296D01*
X120768625Y-88917840D01*
X120723292Y-88863201D01*
X120713000Y-88813325D01*
X120713000Y-85176675D01*
X120733002Y-85108554D01*
X120786658Y-85062061D01*
X120856932Y-85051957D01*
X120904835Y-85069242D01*
X120939052Y-85090210D01*
X120947837Y-85094687D01*
X121157988Y-85181734D01*
X121167373Y-85184783D01*
X121388554Y-85237885D01*
X121398301Y-85239428D01*
X121625070Y-85257275D01*
X121634930Y-85257275D01*
X121861699Y-85239428D01*
X121871446Y-85237885D01*
X122092627Y-85184783D01*
X122102012Y-85181734D01*
X122312163Y-85094687D01*
X122320958Y-85090205D01*
X122488445Y-84987568D01*
X122497907Y-84977110D01*
X122494124Y-84968334D01*
X121359885Y-83834095D01*
X121325859Y-83771783D01*
X121330924Y-83700968D01*
X121359885Y-83655905D01*
X121540905Y-83474885D01*
X121603217Y-83440859D01*
X121674032Y-83445924D01*
G37*
%TD.AperFunction*%
%TA.AperFunction,Conductor*%
G36*
X114054032Y-89945924D02*
G01*
X114099095Y-89974885D01*
X115230290Y-91106080D01*
X115242670Y-91112840D01*
X115250320Y-91107113D01*
X115355205Y-90935958D01*
X115359687Y-90927163D01*
X115446733Y-90717014D01*
X115449902Y-90707260D01*
X115489975Y-90648654D01*
X115555371Y-90621016D01*
X115625328Y-90633121D01*
X115677635Y-90681126D01*
X115689568Y-90707255D01*
X115689741Y-90707788D01*
X115690895Y-90712594D01*
X115719582Y-90781851D01*
X115779772Y-90927163D01*
X115781760Y-90931963D01*
X115784346Y-90936183D01*
X115903241Y-91130202D01*
X115903245Y-91130208D01*
X115905824Y-91134416D01*
X116060031Y-91314969D01*
X116063787Y-91318177D01*
X116084618Y-91335968D01*
X116240584Y-91469176D01*
X116244792Y-91471755D01*
X116244798Y-91471759D01*
X116438817Y-91590654D01*
X116443037Y-91593240D01*
X116447607Y-91595133D01*
X116447611Y-91595135D01*
X116558560Y-91641091D01*
X116613841Y-91685639D01*
X116636262Y-91753003D01*
X116618704Y-91821794D01*
X116566742Y-91870172D01*
X116558560Y-91873909D01*
X116447611Y-91919865D01*
X116447607Y-91919867D01*
X116443037Y-91921760D01*
X116438817Y-91924346D01*
X116244798Y-92043241D01*
X116244792Y-92043245D01*
X116240584Y-92045824D01*
X116060031Y-92200031D01*
X115905824Y-92380584D01*
X115903245Y-92384792D01*
X115903241Y-92384798D01*
X115810380Y-92536333D01*
X115781760Y-92583037D01*
X115779867Y-92587607D01*
X115779865Y-92587611D01*
X115711990Y-92751477D01*
X115690895Y-92802406D01*
X115635465Y-93033289D01*
X115616835Y-93270000D01*
X115635465Y-93506711D01*
X115636619Y-93511518D01*
X115636620Y-93511524D01*
X115653100Y-93580166D01*
X115690895Y-93737594D01*
X115692788Y-93742165D01*
X115692789Y-93742167D01*
X115779772Y-93952163D01*
X115781760Y-93956963D01*
X115784346Y-93961183D01*
X115903241Y-94155202D01*
X115903245Y-94155208D01*
X115905824Y-94159416D01*
X116060031Y-94339969D01*
X116240584Y-94494176D01*
X116244792Y-94496755D01*
X116244798Y-94496759D01*
X116436335Y-94614133D01*
X116483966Y-94666781D01*
X116496500Y-94721566D01*
X116496500Y-98318434D01*
X116476498Y-98386555D01*
X116436335Y-98425867D01*
X116244798Y-98543241D01*
X116244792Y-98543245D01*
X116240584Y-98545824D01*
X116060031Y-98700031D01*
X115905824Y-98880584D01*
X115903245Y-98884792D01*
X115903241Y-98884798D01*
X115786609Y-99075124D01*
X115781760Y-99083037D01*
X115779867Y-99087607D01*
X115779865Y-99087611D01*
X115694260Y-99294281D01*
X115690895Y-99302406D01*
X115674050Y-99372571D01*
X115666388Y-99404487D01*
X115635465Y-99533289D01*
X115616835Y-99770000D01*
X115635465Y-100006711D01*
X115636619Y-100011518D01*
X115636620Y-100011524D01*
X115662405Y-100118923D01*
X115690895Y-100237594D01*
X115692788Y-100242165D01*
X115692789Y-100242167D01*
X115779772Y-100452163D01*
X115781760Y-100456963D01*
X115784346Y-100461183D01*
X115903241Y-100655202D01*
X115903245Y-100655208D01*
X115905824Y-100659416D01*
X116060031Y-100839969D01*
X116240584Y-100994176D01*
X116244792Y-100996755D01*
X116244798Y-100996759D01*
X116362316Y-101068774D01*
X116443037Y-101118240D01*
X116447607Y-101120133D01*
X116447611Y-101120135D01*
X116657833Y-101207211D01*
X116662406Y-101209105D01*
X116667217Y-101210260D01*
X116667220Y-101210261D01*
X116692677Y-101216372D01*
X116720181Y-101222975D01*
X116781750Y-101258326D01*
X116814433Y-101321353D01*
X116807853Y-101392044D01*
X116779862Y-101434589D01*
X115808766Y-102405685D01*
X115796375Y-102416552D01*
X115771013Y-102436013D01*
X115746526Y-102467925D01*
X115746523Y-102467928D01*
X115673476Y-102563124D01*
X115642204Y-102638622D01*
X115612162Y-102711150D01*
X115611084Y-102719338D01*
X115596500Y-102830115D01*
X115596500Y-102830121D01*
X115591652Y-102866946D01*
X115562930Y-102931873D01*
X115503665Y-102970965D01*
X115466730Y-102976500D01*
X114914011Y-102976500D01*
X114845890Y-102956498D01*
X114799397Y-102902842D01*
X114788011Y-102850500D01*
X114788011Y-92584469D01*
X114789089Y-92568023D01*
X114792183Y-92544521D01*
X114793261Y-92536333D01*
X114788011Y-92496453D01*
X114788011Y-92496448D01*
X114773333Y-92384959D01*
X114772349Y-92377482D01*
X114711035Y-92229457D01*
X114688456Y-92200031D01*
X114637994Y-92134269D01*
X114637988Y-92134261D01*
X114637985Y-92134258D01*
X114613498Y-92102346D01*
X114606943Y-92097316D01*
X114588132Y-92082881D01*
X114575741Y-92072014D01*
X114402607Y-91898880D01*
X114368581Y-91836568D01*
X114373646Y-91765753D01*
X114416193Y-91708917D01*
X114462284Y-91687267D01*
X114472624Y-91684784D01*
X114482012Y-91681734D01*
X114692163Y-91594687D01*
X114700958Y-91590205D01*
X114868445Y-91487568D01*
X114877907Y-91477110D01*
X114874124Y-91468334D01*
X113739885Y-90334095D01*
X113705859Y-90271783D01*
X113710924Y-90200968D01*
X113739885Y-90155905D01*
X113920905Y-89974885D01*
X113983217Y-89940859D01*
X114054032Y-89945924D01*
G37*
%TD.AperFunction*%
%TA.AperFunction,Conductor*%
G36*
X126409032Y-97490924D02*
G01*
X126454095Y-97519885D01*
X126635115Y-97700905D01*
X126669141Y-97763217D01*
X126664076Y-97834032D01*
X126635115Y-97879095D01*
X125649923Y-98864287D01*
X125643493Y-98876062D01*
X125652789Y-98888077D01*
X125703994Y-98923931D01*
X125713489Y-98929414D01*
X125910947Y-99021490D01*
X125921239Y-99025236D01*
X126137001Y-99083049D01*
X126136489Y-99084960D01*
X126192308Y-99112613D01*
X126228787Y-99173521D01*
X126226546Y-99244483D01*
X126195926Y-99294281D01*
X125642734Y-99847473D01*
X125580422Y-99881499D01*
X125553639Y-99884378D01*
X125462391Y-99884378D01*
X125455939Y-99885750D01*
X125455934Y-99885750D01*
X125368991Y-99904231D01*
X125275590Y-99924084D01*
X125269560Y-99926769D01*
X125269559Y-99926769D01*
X125107156Y-99999075D01*
X125107154Y-99999076D01*
X125101126Y-100001760D01*
X125095785Y-100005640D01*
X125095784Y-100005641D01*
X125087687Y-100011524D01*
X124946625Y-100114012D01*
X124818838Y-100255934D01*
X124723351Y-100421322D01*
X124664336Y-100602950D01*
X124663646Y-100609511D01*
X124663646Y-100609513D01*
X124658006Y-100663175D01*
X124644374Y-100792878D01*
X124664336Y-100982806D01*
X124723351Y-101164434D01*
X124818838Y-101329822D01*
X124823256Y-101334729D01*
X124823257Y-101334730D01*
X124942203Y-101466833D01*
X124946625Y-101471744D01*
X125101126Y-101583996D01*
X125107154Y-101586680D01*
X125107156Y-101586681D01*
X125174776Y-101616787D01*
X125275590Y-101661672D01*
X125418008Y-101691944D01*
X125480481Y-101725673D01*
X125514803Y-101787822D01*
X125510075Y-101858661D01*
X125480906Y-101904286D01*
X125160597Y-102224595D01*
X125098285Y-102258621D01*
X125071502Y-102261500D01*
X124518136Y-102261500D01*
X124501693Y-102260422D01*
X124470000Y-102256250D01*
X124461811Y-102257328D01*
X124430126Y-102261499D01*
X124430117Y-102261500D01*
X124430115Y-102261500D01*
X124430109Y-102261501D01*
X124430107Y-102261501D01*
X124330543Y-102274609D01*
X124319336Y-102276084D01*
X124319334Y-102276085D01*
X124311149Y-102277162D01*
X124163124Y-102338476D01*
X124160972Y-102340127D01*
X124094479Y-102356261D01*
X124027386Y-102333043D01*
X123983497Y-102277237D01*
X123974469Y-102230403D01*
X123974469Y-99419248D01*
X123994471Y-99351127D01*
X124011374Y-99330153D01*
X124994809Y-98346718D01*
X125057121Y-98312692D01*
X125127936Y-98317757D01*
X125184772Y-98360304D01*
X125198099Y-98382564D01*
X125225584Y-98441507D01*
X125231069Y-98451006D01*
X125267509Y-98503048D01*
X125277988Y-98511424D01*
X125291434Y-98504356D01*
X126275905Y-97519885D01*
X126338217Y-97485859D01*
X126409032Y-97490924D01*
G37*
%TD.AperFunction*%
%TA.AperFunction,Conductor*%
G36*
X130337148Y-91396505D02*
G01*
X130390470Y-91443380D01*
X130409989Y-91510742D01*
X130409989Y-97277272D01*
X130389987Y-97345393D01*
X130373084Y-97366367D01*
X130316875Y-97422576D01*
X130254563Y-97456602D01*
X130183748Y-97451537D01*
X130126912Y-97408990D01*
X130106074Y-97366094D01*
X130100709Y-97346073D01*
X130100707Y-97346067D01*
X130099284Y-97340757D01*
X130069681Y-97277272D01*
X130004849Y-97138238D01*
X130004846Y-97138233D01*
X130002523Y-97133251D01*
X129871198Y-96945700D01*
X129709300Y-96783802D01*
X129704792Y-96780645D01*
X129704789Y-96780643D01*
X129626611Y-96725902D01*
X129521749Y-96652477D01*
X129516767Y-96650154D01*
X129516762Y-96650151D01*
X129319225Y-96558039D01*
X129319224Y-96558039D01*
X129314243Y-96555716D01*
X129308935Y-96554294D01*
X129308933Y-96554293D01*
X129098402Y-96497881D01*
X129098400Y-96497881D01*
X129093087Y-96496457D01*
X128865000Y-96476502D01*
X128636913Y-96496457D01*
X128631600Y-96497881D01*
X128631598Y-96497881D01*
X128581015Y-96511435D01*
X128415757Y-96555716D01*
X128412131Y-96557407D01*
X128341743Y-96561881D01*
X128279702Y-96527363D01*
X128246171Y-96464784D01*
X128243500Y-96438976D01*
X128243500Y-96185217D01*
X128263502Y-96117096D01*
X128280405Y-96096122D01*
X128346723Y-96029804D01*
X128359114Y-96018937D01*
X128377926Y-96004502D01*
X128384476Y-95999476D01*
X128408963Y-95967564D01*
X128408967Y-95967560D01*
X128482013Y-95872365D01*
X128543327Y-95724340D01*
X128547536Y-95692365D01*
X128558989Y-95605374D01*
X128558989Y-95605369D01*
X128564239Y-95565489D01*
X128560067Y-95533796D01*
X128558989Y-95517353D01*
X128558989Y-91779594D01*
X128578991Y-91711473D01*
X128632647Y-91664980D01*
X128702921Y-91654876D01*
X128733207Y-91663185D01*
X128777988Y-91681734D01*
X128787373Y-91684783D01*
X129008554Y-91737885D01*
X129018301Y-91739428D01*
X129245070Y-91757275D01*
X129254930Y-91757275D01*
X129481699Y-91739428D01*
X129491446Y-91737885D01*
X129712627Y-91684783D01*
X129722012Y-91681734D01*
X129932163Y-91594687D01*
X129940958Y-91590205D01*
X130134899Y-91471357D01*
X130142883Y-91465557D01*
X130202158Y-91414931D01*
X130266948Y-91385900D01*
X130337148Y-91396505D01*
G37*
%TD.AperFunction*%
%TA.AperFunction,Conductor*%
G36*
X113170344Y-72934082D02*
G01*
X113319042Y-73025205D01*
X113327837Y-73029687D01*
X113537988Y-73116734D01*
X113547373Y-73119783D01*
X113768554Y-73172885D01*
X113778301Y-73174428D01*
X114005070Y-73192275D01*
X114014930Y-73192275D01*
X114241699Y-73174428D01*
X114251446Y-73172885D01*
X114472627Y-73119783D01*
X114482012Y-73116734D01*
X114526793Y-73098185D01*
X114597383Y-73090596D01*
X114660870Y-73122375D01*
X114697097Y-73183434D01*
X114701011Y-73214594D01*
X114701011Y-75250744D01*
X114700484Y-75261927D01*
X114698809Y-75269420D01*
X114699058Y-75277346D01*
X114699058Y-75277347D01*
X114700949Y-75337497D01*
X114701011Y-75341456D01*
X114701011Y-75369367D01*
X114701508Y-75373301D01*
X114701508Y-75373302D01*
X114701516Y-75373367D01*
X114702449Y-75385204D01*
X114703838Y-75429400D01*
X114709489Y-75448850D01*
X114713498Y-75468211D01*
X114716037Y-75488308D01*
X114718956Y-75495679D01*
X114718956Y-75495681D01*
X114732315Y-75529423D01*
X114736160Y-75540653D01*
X114742671Y-75563063D01*
X114748493Y-75583104D01*
X114752526Y-75589923D01*
X114752528Y-75589928D01*
X114758804Y-75600539D01*
X114767499Y-75618287D01*
X114774959Y-75637128D01*
X114779621Y-75643544D01*
X114779621Y-75643545D01*
X114800947Y-75672898D01*
X114807463Y-75682818D01*
X114825542Y-75713387D01*
X114829969Y-75720873D01*
X114844290Y-75735194D01*
X114857130Y-75750227D01*
X114869039Y-75766618D01*
X114896448Y-75789293D01*
X114903116Y-75794809D01*
X114911885Y-75802789D01*
X115855002Y-76745907D01*
X115889026Y-76808217D01*
X115883961Y-76879033D01*
X115855000Y-76924095D01*
X115443466Y-77335629D01*
X115381154Y-77369655D01*
X115310339Y-77364590D01*
X115267247Y-77332331D01*
X115266001Y-77333708D01*
X115242110Y-77312094D01*
X115233333Y-77315877D01*
X114099095Y-78450115D01*
X114036783Y-78484141D01*
X113965968Y-78479076D01*
X113920905Y-78450115D01*
X113739885Y-78269095D01*
X113705859Y-78206783D01*
X113710924Y-78135968D01*
X113739885Y-78090905D01*
X114871080Y-76959710D01*
X114877840Y-76947330D01*
X114872113Y-76939680D01*
X114700958Y-76834795D01*
X114692163Y-76830313D01*
X114482012Y-76743266D01*
X114472627Y-76740217D01*
X114251446Y-76687115D01*
X114241699Y-76685572D01*
X114014930Y-76667725D01*
X114005070Y-76667725D01*
X113778301Y-76685572D01*
X113768554Y-76687115D01*
X113547373Y-76740217D01*
X113537988Y-76743266D01*
X113327837Y-76830313D01*
X113319042Y-76834795D01*
X113170344Y-76925918D01*
X113101811Y-76944457D01*
X113034134Y-76923001D01*
X112988801Y-76868362D01*
X112978509Y-76818486D01*
X112978509Y-73041514D01*
X112998511Y-72973393D01*
X113052167Y-72926900D01*
X113122441Y-72916796D01*
X113170344Y-72934082D01*
G37*
%TD.AperFunction*%
%TA.AperFunction,Conductor*%
G36*
X130731730Y-74727985D02*
G01*
X130788566Y-74770532D01*
X130813377Y-74837052D01*
X130813219Y-74857019D01*
X130804647Y-74955000D01*
X130824022Y-75176463D01*
X130841958Y-75243399D01*
X130840268Y-75314376D01*
X130809346Y-75365105D01*
X130622255Y-75552196D01*
X130609864Y-75563063D01*
X130601231Y-75569687D01*
X130584502Y-75582524D01*
X130560015Y-75614436D01*
X130560012Y-75614439D01*
X130560006Y-75614447D01*
X130507543Y-75682818D01*
X130486965Y-75709635D01*
X130425651Y-75857660D01*
X130425651Y-75857661D01*
X130409989Y-75976626D01*
X130409989Y-75976631D01*
X130404739Y-76016511D01*
X130405817Y-76024699D01*
X130408911Y-76048201D01*
X130409989Y-76064647D01*
X130409989Y-76914258D01*
X130389987Y-76982379D01*
X130336331Y-77028872D01*
X130266057Y-77038976D01*
X130202158Y-77010069D01*
X130142883Y-76959443D01*
X130134899Y-76953643D01*
X129940958Y-76834795D01*
X129932163Y-76830313D01*
X129722012Y-76743266D01*
X129712627Y-76740217D01*
X129491446Y-76687115D01*
X129481699Y-76685572D01*
X129254930Y-76667725D01*
X129245070Y-76667725D01*
X129018301Y-76685572D01*
X129008554Y-76687115D01*
X128995398Y-76690274D01*
X128924490Y-76686727D01*
X128866756Y-76645407D01*
X128840526Y-76579434D01*
X128854128Y-76509752D01*
X128876889Y-76478660D01*
X130598603Y-74756946D01*
X130660915Y-74722920D01*
X130731730Y-74727985D01*
G37*
%TD.AperFunction*%
%TA.AperFunction,Conductor*%
G36*
X129294032Y-71380924D02*
G01*
X129339095Y-71409885D01*
X130470290Y-72541080D01*
X130482670Y-72547840D01*
X130490320Y-72542113D01*
X130575459Y-72403181D01*
X130628107Y-72355549D01*
X130698148Y-72343943D01*
X130763346Y-72372047D01*
X130802999Y-72430937D01*
X130808412Y-72458035D01*
X130824022Y-72636463D01*
X130830126Y-72659242D01*
X130841958Y-72703399D01*
X130840268Y-72774376D01*
X130809346Y-72825105D01*
X127939084Y-75695367D01*
X127876772Y-75729393D01*
X127805957Y-75724328D01*
X127749121Y-75681781D01*
X127724310Y-75615261D01*
X127723989Y-75606272D01*
X127723989Y-72912670D01*
X128382160Y-72912670D01*
X128387887Y-72920320D01*
X128559042Y-73025205D01*
X128567837Y-73029687D01*
X128777988Y-73116734D01*
X128787373Y-73119783D01*
X129008554Y-73172885D01*
X129018301Y-73174428D01*
X129245070Y-73192275D01*
X129254930Y-73192275D01*
X129481699Y-73174428D01*
X129491446Y-73172885D01*
X129712627Y-73119783D01*
X129722012Y-73116734D01*
X129932163Y-73029687D01*
X129940958Y-73025205D01*
X130108445Y-72922568D01*
X130117907Y-72912110D01*
X130114124Y-72903334D01*
X129262812Y-72052022D01*
X129248868Y-72044408D01*
X129247035Y-72044539D01*
X129240420Y-72048790D01*
X128388920Y-72900290D01*
X128382160Y-72912670D01*
X127723989Y-72912670D01*
X127723989Y-72522670D01*
X127743991Y-72454549D01*
X127797647Y-72408056D01*
X127867921Y-72397952D01*
X127932501Y-72427446D01*
X127957421Y-72456835D01*
X128007432Y-72538445D01*
X128017890Y-72547907D01*
X128026666Y-72544124D01*
X129160905Y-71409885D01*
X129223217Y-71375859D01*
X129294032Y-71380924D01*
G37*
%TD.AperFunction*%
%TA.AperFunction,Conductor*%
G36*
X128392656Y-58313002D02*
G01*
X128439149Y-58366658D01*
X128449253Y-58436932D01*
X128419759Y-58501512D01*
X128377785Y-58533195D01*
X128340489Y-58550586D01*
X128330994Y-58556069D01*
X128278952Y-58592509D01*
X128270576Y-58602988D01*
X128277644Y-58616434D01*
X128979188Y-59317978D01*
X128993132Y-59325592D01*
X128994965Y-59325461D01*
X129001580Y-59321210D01*
X129707077Y-58615713D01*
X129713507Y-58603938D01*
X129704211Y-58591923D01*
X129653006Y-58556069D01*
X129643511Y-58550586D01*
X129606215Y-58533195D01*
X129552930Y-58486277D01*
X129533469Y-58418000D01*
X129554011Y-58350040D01*
X129608034Y-58303975D01*
X129659465Y-58293000D01*
X131554880Y-58293000D01*
X131623001Y-58313002D01*
X131669494Y-58366658D01*
X131679598Y-58436932D01*
X131650104Y-58501512D01*
X131608130Y-58533195D01*
X131447311Y-58608186D01*
X131447306Y-58608189D01*
X131442324Y-58610512D01*
X131437817Y-58613668D01*
X131437815Y-58613669D01*
X131264730Y-58734864D01*
X131264727Y-58734866D01*
X131260219Y-58738023D01*
X131103023Y-58895219D01*
X131099866Y-58899727D01*
X131099864Y-58899730D01*
X130978669Y-59072815D01*
X130975512Y-59077324D01*
X130973189Y-59082306D01*
X130973186Y-59082311D01*
X130896745Y-59246239D01*
X130881560Y-59278804D01*
X130880138Y-59284112D01*
X130880137Y-59284114D01*
X130865413Y-59339064D01*
X130824022Y-59493537D01*
X130804647Y-59715000D01*
X130824022Y-59936463D01*
X130825446Y-59941776D01*
X130825447Y-59941783D01*
X130834485Y-59975514D01*
X130832796Y-60046490D01*
X130801874Y-60097221D01*
X130601236Y-60297859D01*
X130592950Y-60305399D01*
X130586471Y-60309511D01*
X130541703Y-60357185D01*
X130539846Y-60359162D01*
X130537091Y-60362004D01*
X130517354Y-60381741D01*
X130514874Y-60384938D01*
X130507171Y-60393958D01*
X130476903Y-60426190D01*
X130473084Y-60433136D01*
X130473082Y-60433139D01*
X130467141Y-60443945D01*
X130456290Y-60460464D01*
X130443875Y-60476470D01*
X130440730Y-60483739D01*
X130440727Y-60483743D01*
X130426315Y-60517048D01*
X130421098Y-60527698D01*
X130399794Y-60566451D01*
X130397823Y-60574126D01*
X130397823Y-60574127D01*
X130394756Y-60586073D01*
X130388352Y-60604777D01*
X130380308Y-60623366D01*
X130379069Y-60631189D01*
X130379066Y-60631199D01*
X130373390Y-60667035D01*
X130370984Y-60678655D01*
X130367564Y-60691977D01*
X130359989Y-60721481D01*
X130359989Y-60741735D01*
X130358438Y-60761445D01*
X130355269Y-60781454D01*
X130356015Y-60789346D01*
X130359430Y-60825472D01*
X130359989Y-60837330D01*
X130359989Y-66995060D01*
X130339987Y-67063181D01*
X130323084Y-67084155D01*
X126581874Y-70825364D01*
X126519562Y-70859390D01*
X126448746Y-70854325D01*
X126391911Y-70811778D01*
X126367100Y-70745258D01*
X126366841Y-70732312D01*
X126366980Y-70727886D01*
X126368220Y-70720057D01*
X126364059Y-70676038D01*
X126363500Y-70664181D01*
X126363500Y-70563767D01*
X126364027Y-70552584D01*
X126365702Y-70545091D01*
X126364380Y-70503018D01*
X126363562Y-70477014D01*
X126363500Y-70473055D01*
X126363500Y-70445144D01*
X126362995Y-70441144D01*
X126362062Y-70429301D01*
X126360922Y-70393029D01*
X126360673Y-70385110D01*
X126358462Y-70377500D01*
X126357222Y-70369671D01*
X126357365Y-70369648D01*
X126353500Y-70342489D01*
X126353500Y-64719394D01*
X126373502Y-64651273D01*
X126407229Y-64616181D01*
X126559789Y-64509357D01*
X126559792Y-64509355D01*
X126564300Y-64506198D01*
X126726198Y-64344300D01*
X126857523Y-64156749D01*
X126859846Y-64151767D01*
X126859849Y-64151762D01*
X126875805Y-64117543D01*
X126922722Y-64064258D01*
X126990999Y-64044797D01*
X127058959Y-64065339D01*
X127104195Y-64117543D01*
X127120151Y-64151762D01*
X127120154Y-64151767D01*
X127122477Y-64156749D01*
X127253802Y-64344300D01*
X127415700Y-64506198D01*
X127420208Y-64509355D01*
X127420211Y-64509357D01*
X127420744Y-64509730D01*
X127603251Y-64637523D01*
X127608233Y-64639846D01*
X127608238Y-64639849D01*
X127805771Y-64731959D01*
X127810757Y-64734284D01*
X127816065Y-64735706D01*
X127816067Y-64735707D01*
X128026598Y-64792119D01*
X128026600Y-64792119D01*
X128031913Y-64793543D01*
X128260000Y-64813498D01*
X128488087Y-64793543D01*
X128493400Y-64792119D01*
X128493402Y-64792119D01*
X128703933Y-64735707D01*
X128703935Y-64735706D01*
X128709243Y-64734284D01*
X128714229Y-64731959D01*
X128911762Y-64639849D01*
X128911767Y-64639846D01*
X128916749Y-64637523D01*
X129099256Y-64509730D01*
X129099789Y-64509357D01*
X129099792Y-64509355D01*
X129104300Y-64506198D01*
X129266198Y-64344300D01*
X129397523Y-64156749D01*
X129399846Y-64151767D01*
X129399849Y-64151762D01*
X129491961Y-63954225D01*
X129491961Y-63954224D01*
X129494284Y-63949243D01*
X129528401Y-63821920D01*
X129552119Y-63733402D01*
X129552119Y-63733400D01*
X129553543Y-63728087D01*
X129573498Y-63500000D01*
X129553543Y-63271913D01*
X129494284Y-63050757D01*
X129449727Y-62955203D01*
X129399849Y-62848238D01*
X129399846Y-62848233D01*
X129397523Y-62843251D01*
X129324098Y-62738389D01*
X129269357Y-62660211D01*
X129269355Y-62660208D01*
X129266198Y-62655700D01*
X129104300Y-62493802D01*
X129099792Y-62490645D01*
X129099789Y-62490643D01*
X129021611Y-62435902D01*
X128916749Y-62362477D01*
X128911767Y-62360154D01*
X128911762Y-62360151D01*
X128714225Y-62268039D01*
X128714224Y-62268039D01*
X128709243Y-62265716D01*
X128703935Y-62264294D01*
X128703933Y-62264293D01*
X128493402Y-62207881D01*
X128493400Y-62207881D01*
X128488087Y-62206457D01*
X128260000Y-62186502D01*
X128031913Y-62206457D01*
X128026600Y-62207881D01*
X128026598Y-62207881D01*
X127816067Y-62264293D01*
X127816065Y-62264294D01*
X127810757Y-62265716D01*
X127805776Y-62268039D01*
X127805775Y-62268039D01*
X127608238Y-62360151D01*
X127608233Y-62360154D01*
X127603251Y-62362477D01*
X127498389Y-62435902D01*
X127420211Y-62490643D01*
X127420208Y-62490645D01*
X127415700Y-62493802D01*
X127253802Y-62655700D01*
X127250645Y-62660208D01*
X127250643Y-62660211D01*
X127195902Y-62738389D01*
X127122477Y-62843251D01*
X127120154Y-62848233D01*
X127120151Y-62848238D01*
X127104195Y-62882457D01*
X127057278Y-62935742D01*
X126989001Y-62955203D01*
X126921041Y-62934661D01*
X126875805Y-62882457D01*
X126859849Y-62848238D01*
X126859846Y-62848233D01*
X126857523Y-62843251D01*
X126784098Y-62738389D01*
X126729357Y-62660211D01*
X126729355Y-62660208D01*
X126726198Y-62655700D01*
X126564300Y-62493802D01*
X126559792Y-62490645D01*
X126559789Y-62490643D01*
X126481611Y-62435902D01*
X126376749Y-62362477D01*
X126371767Y-62360154D01*
X126371762Y-62360151D01*
X126174225Y-62268039D01*
X126174224Y-62268039D01*
X126169243Y-62265716D01*
X126163935Y-62264294D01*
X126163933Y-62264293D01*
X125953402Y-62207881D01*
X125953400Y-62207881D01*
X125948087Y-62206457D01*
X125720000Y-62186502D01*
X125491913Y-62206457D01*
X125486600Y-62207881D01*
X125486598Y-62207881D01*
X125276067Y-62264293D01*
X125276065Y-62264294D01*
X125270757Y-62265716D01*
X125265776Y-62268039D01*
X125265775Y-62268039D01*
X125068238Y-62360151D01*
X125068233Y-62360154D01*
X125063251Y-62362477D01*
X124958389Y-62435902D01*
X124880211Y-62490643D01*
X124880208Y-62490645D01*
X124875700Y-62493802D01*
X124713802Y-62655700D01*
X124710645Y-62660208D01*
X124710643Y-62660211D01*
X124655902Y-62738389D01*
X124582477Y-62843251D01*
X124580154Y-62848233D01*
X124580151Y-62848238D01*
X124564195Y-62882457D01*
X124517278Y-62935742D01*
X124449001Y-62955203D01*
X124381041Y-62934661D01*
X124335805Y-62882457D01*
X124319849Y-62848238D01*
X124319846Y-62848233D01*
X124317523Y-62843251D01*
X124244098Y-62738389D01*
X124189357Y-62660211D01*
X124189355Y-62660208D01*
X124186198Y-62655700D01*
X124024300Y-62493802D01*
X124019792Y-62490645D01*
X124019789Y-62490643D01*
X123941611Y-62435902D01*
X123836749Y-62362477D01*
X123831767Y-62360154D01*
X123831762Y-62360151D01*
X123634225Y-62268039D01*
X123634224Y-62268039D01*
X123629243Y-62265716D01*
X123623935Y-62264294D01*
X123623933Y-62264293D01*
X123413402Y-62207881D01*
X123413400Y-62207881D01*
X123408087Y-62206457D01*
X123180000Y-62186502D01*
X122951913Y-62206457D01*
X122946600Y-62207881D01*
X122946598Y-62207881D01*
X122736067Y-62264293D01*
X122736065Y-62264294D01*
X122730757Y-62265716D01*
X122725776Y-62268039D01*
X122725775Y-62268039D01*
X122528238Y-62360151D01*
X122528233Y-62360154D01*
X122523251Y-62362477D01*
X122418389Y-62435902D01*
X122340211Y-62490643D01*
X122340208Y-62490645D01*
X122335700Y-62493802D01*
X122173802Y-62655700D01*
X122170645Y-62660208D01*
X122170643Y-62660211D01*
X122115902Y-62738389D01*
X122042477Y-62843251D01*
X122040154Y-62848233D01*
X122040151Y-62848238D01*
X122024195Y-62882457D01*
X121977278Y-62935742D01*
X121909001Y-62955203D01*
X121841041Y-62934661D01*
X121795805Y-62882457D01*
X121779849Y-62848238D01*
X121779846Y-62848233D01*
X121777523Y-62843251D01*
X121704098Y-62738389D01*
X121649357Y-62660211D01*
X121649355Y-62660208D01*
X121646198Y-62655700D01*
X121484300Y-62493802D01*
X121479792Y-62490645D01*
X121479789Y-62490643D01*
X121401611Y-62435902D01*
X121296749Y-62362477D01*
X121291767Y-62360154D01*
X121291762Y-62360151D01*
X121094225Y-62268039D01*
X121094224Y-62268039D01*
X121089243Y-62265716D01*
X121083935Y-62264294D01*
X121083933Y-62264293D01*
X120873402Y-62207881D01*
X120873400Y-62207881D01*
X120868087Y-62206457D01*
X120640000Y-62186502D01*
X120411913Y-62206457D01*
X120406600Y-62207881D01*
X120406598Y-62207881D01*
X120196067Y-62264293D01*
X120196065Y-62264294D01*
X120190757Y-62265716D01*
X120185776Y-62268039D01*
X120185775Y-62268039D01*
X119988238Y-62360151D01*
X119988233Y-62360154D01*
X119983251Y-62362477D01*
X119878389Y-62435902D01*
X119800211Y-62490643D01*
X119800208Y-62490645D01*
X119795700Y-62493802D01*
X119633802Y-62655700D01*
X119630645Y-62660208D01*
X119630643Y-62660211D01*
X119575902Y-62738389D01*
X119502477Y-62843251D01*
X119500154Y-62848233D01*
X119500151Y-62848238D01*
X119484195Y-62882457D01*
X119437278Y-62935742D01*
X119369001Y-62955203D01*
X119301041Y-62934661D01*
X119255805Y-62882457D01*
X119239849Y-62848238D01*
X119239846Y-62848233D01*
X119237523Y-62843251D01*
X119164098Y-62738389D01*
X119109357Y-62660211D01*
X119109355Y-62660208D01*
X119106198Y-62655700D01*
X118944300Y-62493802D01*
X118939792Y-62490645D01*
X118939789Y-62490643D01*
X118861611Y-62435902D01*
X118756749Y-62362477D01*
X118751767Y-62360154D01*
X118751762Y-62360151D01*
X118554225Y-62268039D01*
X118554224Y-62268039D01*
X118549243Y-62265716D01*
X118543935Y-62264294D01*
X118543933Y-62264293D01*
X118333402Y-62207881D01*
X118333400Y-62207881D01*
X118328087Y-62206457D01*
X118100000Y-62186502D01*
X117871913Y-62206457D01*
X117866600Y-62207881D01*
X117866598Y-62207881D01*
X117807524Y-62223710D01*
X117650757Y-62265716D01*
X117643467Y-62269115D01*
X117642357Y-62269284D01*
X117640604Y-62269922D01*
X117640476Y-62269570D01*
X117573277Y-62279777D01*
X117508464Y-62250798D01*
X117469607Y-62191379D01*
X117464217Y-62154921D01*
X117464217Y-61273877D01*
X117484219Y-61205756D01*
X117501122Y-61184782D01*
X117644549Y-61041355D01*
X117706861Y-61007329D01*
X117758762Y-61006979D01*
X117938597Y-61043567D01*
X117943772Y-61043757D01*
X117943774Y-61043757D01*
X118156673Y-61051564D01*
X118156677Y-61051564D01*
X118161837Y-61051753D01*
X118166957Y-61051097D01*
X118166959Y-61051097D01*
X118378288Y-61024025D01*
X118378289Y-61024025D01*
X118383416Y-61023368D01*
X118388366Y-61021883D01*
X118592429Y-60960661D01*
X118592434Y-60960659D01*
X118597384Y-60959174D01*
X118797994Y-60860896D01*
X118979860Y-60731173D01*
X119011788Y-60699357D01*
X119120036Y-60591486D01*
X119138096Y-60573489D01*
X119169498Y-60529789D01*
X119268453Y-60392077D01*
X119269776Y-60393028D01*
X119316645Y-60349857D01*
X119386580Y-60337625D01*
X119452026Y-60365144D01*
X119479875Y-60396994D01*
X119484828Y-60405077D01*
X119539987Y-60495088D01*
X119686250Y-60663938D01*
X119858126Y-60806632D01*
X120051000Y-60919338D01*
X120055825Y-60921180D01*
X120055826Y-60921181D01*
X120109523Y-60941686D01*
X120259692Y-60999030D01*
X120264760Y-61000061D01*
X120264763Y-61000062D01*
X120319784Y-61011256D01*
X120478597Y-61043567D01*
X120483772Y-61043757D01*
X120483774Y-61043757D01*
X120696673Y-61051564D01*
X120696677Y-61051564D01*
X120701837Y-61051753D01*
X120706957Y-61051097D01*
X120706959Y-61051097D01*
X120918288Y-61024025D01*
X120918289Y-61024025D01*
X120923416Y-61023368D01*
X120928366Y-61021883D01*
X121132429Y-60960661D01*
X121132434Y-60960659D01*
X121137384Y-60959174D01*
X121337994Y-60860896D01*
X121519860Y-60731173D01*
X121551788Y-60699357D01*
X121628479Y-60622933D01*
X121690851Y-60589017D01*
X121761658Y-60594205D01*
X121818419Y-60636851D01*
X121835401Y-60667954D01*
X121876676Y-60778054D01*
X121885214Y-60793649D01*
X121961715Y-60895724D01*
X121974276Y-60908285D01*
X122076351Y-60984786D01*
X122091946Y-60993324D01*
X122212394Y-61038478D01*
X122227649Y-61042105D01*
X122278514Y-61047631D01*
X122285328Y-61048000D01*
X122907885Y-61048000D01*
X122923124Y-61043525D01*
X122924329Y-61042135D01*
X122926000Y-61034452D01*
X122926000Y-61029884D01*
X123434000Y-61029884D01*
X123438475Y-61045123D01*
X123439865Y-61046328D01*
X123447548Y-61047999D01*
X124074669Y-61047999D01*
X124081490Y-61047629D01*
X124132352Y-61042105D01*
X124147604Y-61038479D01*
X124268054Y-60993324D01*
X124283649Y-60984786D01*
X124385724Y-60908285D01*
X124398285Y-60895724D01*
X124474786Y-60793649D01*
X124483324Y-60778054D01*
X124528478Y-60657606D01*
X124532105Y-60642351D01*
X124537631Y-60591486D01*
X124538000Y-60584672D01*
X124538000Y-59962115D01*
X124533525Y-59946876D01*
X124532135Y-59945671D01*
X124524452Y-59944000D01*
X123452115Y-59944000D01*
X123436876Y-59948475D01*
X123435671Y-59949865D01*
X123434000Y-59957548D01*
X123434000Y-61029884D01*
X122926000Y-61029884D01*
X122926000Y-59562000D01*
X122946002Y-59493879D01*
X122999658Y-59447386D01*
X123052000Y-59436000D01*
X124519884Y-59436000D01*
X124535123Y-59431525D01*
X124536328Y-59430135D01*
X124537999Y-59422452D01*
X124537999Y-59274989D01*
X124558001Y-59206868D01*
X124611657Y-59160375D01*
X124663999Y-59148989D01*
X125002895Y-59148989D01*
X125071016Y-59168991D01*
X125091990Y-59185894D01*
X125182848Y-59276752D01*
X125216874Y-59339064D01*
X125215459Y-59398459D01*
X125199882Y-59456591D01*
X125199880Y-59456602D01*
X125198457Y-59461913D01*
X125178502Y-59690000D01*
X125198457Y-59918087D01*
X125199881Y-59923400D01*
X125199881Y-59923402D01*
X125247851Y-60102425D01*
X125257716Y-60139243D01*
X125260039Y-60144224D01*
X125260039Y-60144225D01*
X125352151Y-60341762D01*
X125352154Y-60341767D01*
X125354477Y-60346749D01*
X125386216Y-60392077D01*
X125477540Y-60522500D01*
X125485802Y-60534300D01*
X125647700Y-60696198D01*
X125652208Y-60699355D01*
X125652211Y-60699357D01*
X125697649Y-60731173D01*
X125835251Y-60827523D01*
X125840233Y-60829846D01*
X125840238Y-60829849D01*
X126036765Y-60921490D01*
X126042757Y-60924284D01*
X126048065Y-60925706D01*
X126048067Y-60925707D01*
X126258598Y-60982119D01*
X126258600Y-60982119D01*
X126263913Y-60983543D01*
X126492000Y-61003498D01*
X126720087Y-60983543D01*
X126725400Y-60982119D01*
X126725402Y-60982119D01*
X126935933Y-60925707D01*
X126935935Y-60925706D01*
X126941243Y-60924284D01*
X126947235Y-60921490D01*
X127143762Y-60829849D01*
X127143767Y-60829846D01*
X127148749Y-60827523D01*
X127222243Y-60776062D01*
X128270493Y-60776062D01*
X128279789Y-60788077D01*
X128330994Y-60823931D01*
X128340489Y-60829414D01*
X128537947Y-60921490D01*
X128548239Y-60925236D01*
X128758688Y-60981625D01*
X128769481Y-60983528D01*
X128986525Y-61002517D01*
X128997475Y-61002517D01*
X129214519Y-60983528D01*
X129225312Y-60981625D01*
X129435761Y-60925236D01*
X129446053Y-60921490D01*
X129643511Y-60829414D01*
X129653006Y-60823931D01*
X129705048Y-60787491D01*
X129713424Y-60777012D01*
X129706356Y-60763566D01*
X129004812Y-60062022D01*
X128990868Y-60054408D01*
X128989035Y-60054539D01*
X128982420Y-60058790D01*
X128276923Y-60764287D01*
X128270493Y-60776062D01*
X127222243Y-60776062D01*
X127286351Y-60731173D01*
X127331789Y-60699357D01*
X127331792Y-60699355D01*
X127336300Y-60696198D01*
X127498198Y-60534300D01*
X127506461Y-60522500D01*
X127597784Y-60392077D01*
X127629523Y-60346749D01*
X127631847Y-60341765D01*
X127633171Y-60339472D01*
X127684553Y-60290479D01*
X127754267Y-60277043D01*
X127820178Y-60303429D01*
X127851409Y-60339472D01*
X127858066Y-60351002D01*
X127894509Y-60403048D01*
X127904988Y-60411424D01*
X127918434Y-60404356D01*
X128619978Y-59702812D01*
X128626356Y-59691132D01*
X129356408Y-59691132D01*
X129356539Y-59692965D01*
X129360790Y-59699580D01*
X130066287Y-60405077D01*
X130078062Y-60411507D01*
X130090077Y-60402211D01*
X130125931Y-60351006D01*
X130131414Y-60341511D01*
X130223490Y-60144053D01*
X130227236Y-60133761D01*
X130283625Y-59923312D01*
X130285528Y-59912519D01*
X130304517Y-59695475D01*
X130304517Y-59684525D01*
X130285528Y-59467481D01*
X130283625Y-59456688D01*
X130227236Y-59246239D01*
X130223490Y-59235947D01*
X130131414Y-59038489D01*
X130125931Y-59028994D01*
X130089491Y-58976952D01*
X130079012Y-58968576D01*
X130065566Y-58975644D01*
X129364022Y-59677188D01*
X129356408Y-59691132D01*
X128626356Y-59691132D01*
X128627592Y-59688868D01*
X128627461Y-59687035D01*
X128623210Y-59680420D01*
X127917713Y-58974923D01*
X127905938Y-58968493D01*
X127893923Y-58977789D01*
X127858066Y-59028998D01*
X127851409Y-59040528D01*
X127800027Y-59089521D01*
X127730313Y-59102958D01*
X127664402Y-59076571D01*
X127633171Y-59040528D01*
X127631847Y-59038235D01*
X127629523Y-59033251D01*
X127538795Y-58903678D01*
X127501357Y-58850211D01*
X127501355Y-58850208D01*
X127498198Y-58845700D01*
X127336300Y-58683802D01*
X127331792Y-58680645D01*
X127331789Y-58680643D01*
X127220886Y-58602988D01*
X127148749Y-58552477D01*
X127143764Y-58550153D01*
X127143758Y-58550149D01*
X127107399Y-58533195D01*
X127054113Y-58486278D01*
X127034652Y-58418001D01*
X127055193Y-58350041D01*
X127109216Y-58303975D01*
X127160648Y-58293000D01*
X128324535Y-58293000D01*
X128392656Y-58313002D01*
G37*
%TD.AperFunction*%
%TA.AperFunction,Conductor*%
G36*
X111629574Y-58313002D02*
G01*
X111676067Y-58366658D01*
X111686171Y-58436932D01*
X111657478Y-58499759D01*
X111657790Y-58500017D01*
X111655788Y-58502437D01*
X111655787Y-58502438D01*
X111629609Y-58534082D01*
X111621619Y-58542863D01*
X111278230Y-58886251D01*
X111269952Y-58893784D01*
X111263471Y-58897897D01*
X111258044Y-58903676D01*
X111258042Y-58903678D01*
X111216862Y-58947532D01*
X111214106Y-58950376D01*
X111194354Y-58970127D01*
X111191874Y-58973324D01*
X111184171Y-58982344D01*
X111153903Y-59014576D01*
X111150084Y-59021522D01*
X111150082Y-59021525D01*
X111144141Y-59032331D01*
X111133290Y-59048850D01*
X111120875Y-59064856D01*
X111117730Y-59072125D01*
X111117727Y-59072129D01*
X111103315Y-59105434D01*
X111098098Y-59116084D01*
X111076794Y-59154837D01*
X111074823Y-59162512D01*
X111074823Y-59162513D01*
X111071756Y-59174459D01*
X111065352Y-59193163D01*
X111057308Y-59211752D01*
X111056069Y-59219575D01*
X111056066Y-59219585D01*
X111050390Y-59255421D01*
X111047984Y-59267041D01*
X111045491Y-59276752D01*
X111036989Y-59309867D01*
X111036989Y-59330121D01*
X111035438Y-59349831D01*
X111032269Y-59369840D01*
X111033015Y-59377732D01*
X111036430Y-59413858D01*
X111036989Y-59425716D01*
X111036989Y-62061722D01*
X111036462Y-62072907D01*
X111034787Y-62080398D01*
X111034792Y-62080562D01*
X111009751Y-62143290D01*
X110951960Y-62184529D01*
X110910632Y-62191500D01*
X109631866Y-62191500D01*
X109569684Y-62198255D01*
X109433295Y-62249385D01*
X109316739Y-62336739D01*
X109229385Y-62453295D01*
X109178255Y-62589684D01*
X109171500Y-62651866D01*
X109171500Y-64348134D01*
X109178255Y-64410316D01*
X109229385Y-64546705D01*
X109316739Y-64663261D01*
X109433295Y-64750615D01*
X109569684Y-64801745D01*
X109631866Y-64808500D01*
X109720500Y-64808500D01*
X109788621Y-64828502D01*
X109835114Y-64882158D01*
X109846500Y-64934500D01*
X109846500Y-65875500D01*
X109826498Y-65943621D01*
X109772842Y-65990114D01*
X109720500Y-66001500D01*
X109621866Y-66001500D01*
X109559684Y-66008255D01*
X109423295Y-66059385D01*
X109306739Y-66146739D01*
X109219385Y-66263295D01*
X109168255Y-66399684D01*
X109161500Y-66461866D01*
X109161500Y-68158134D01*
X109168255Y-68220316D01*
X109219385Y-68356705D01*
X109306739Y-68473261D01*
X109423295Y-68560615D01*
X109559684Y-68611745D01*
X109621866Y-68618500D01*
X110202106Y-68618500D01*
X110270227Y-68638502D01*
X110316720Y-68692158D01*
X110326824Y-68762432D01*
X110311226Y-68807499D01*
X110290473Y-68843444D01*
X110272739Y-68898023D01*
X110251289Y-68964039D01*
X110211215Y-69022644D01*
X110157655Y-69048348D01*
X110142420Y-69051587D01*
X110142418Y-69051588D01*
X110135957Y-69052961D01*
X110129927Y-69055646D01*
X110129926Y-69055646D01*
X109967523Y-69127952D01*
X109967521Y-69127953D01*
X109961493Y-69130637D01*
X109956152Y-69134517D01*
X109956151Y-69134518D01*
X109848446Y-69212771D01*
X109806992Y-69242889D01*
X109802579Y-69247791D01*
X109802577Y-69247792D01*
X109781171Y-69271566D01*
X109720725Y-69308805D01*
X109687535Y-69313255D01*
X109478602Y-69313255D01*
X109462156Y-69312177D01*
X109438646Y-69309082D01*
X109430458Y-69308004D01*
X109271607Y-69328917D01*
X109123582Y-69390231D01*
X109077763Y-69425389D01*
X109028395Y-69463270D01*
X109028379Y-69463284D01*
X109003024Y-69482739D01*
X109003021Y-69482742D01*
X108996471Y-69487768D01*
X108991441Y-69494323D01*
X108977006Y-69513134D01*
X108966139Y-69525525D01*
X108100399Y-70391265D01*
X108038087Y-70425291D01*
X107967272Y-70420226D01*
X107910436Y-70377679D01*
X107885625Y-70311159D01*
X107889597Y-70269559D01*
X107912130Y-70185465D01*
X107935978Y-70096463D01*
X107955353Y-69875000D01*
X107935978Y-69653537D01*
X107890746Y-69484729D01*
X107879863Y-69444114D01*
X107879862Y-69444112D01*
X107878440Y-69438804D01*
X107855790Y-69390231D01*
X107786814Y-69242311D01*
X107786811Y-69242306D01*
X107784488Y-69237324D01*
X107767296Y-69212771D01*
X107660136Y-69059730D01*
X107660134Y-69059727D01*
X107656977Y-69055219D01*
X107499781Y-68898023D01*
X107495273Y-68894866D01*
X107495270Y-68894864D01*
X107381926Y-68815500D01*
X107317677Y-68770512D01*
X107312695Y-68768189D01*
X107312690Y-68768186D01*
X107207627Y-68719195D01*
X107154342Y-68672278D01*
X107134881Y-68604001D01*
X107155423Y-68536041D01*
X107207627Y-68490805D01*
X107312690Y-68441814D01*
X107312695Y-68441811D01*
X107317677Y-68439488D01*
X107447911Y-68348297D01*
X107495270Y-68315136D01*
X107495273Y-68315134D01*
X107499781Y-68311977D01*
X107656977Y-68154781D01*
X107660473Y-68149789D01*
X107781331Y-67977185D01*
X107781332Y-67977183D01*
X107784488Y-67972676D01*
X107786811Y-67967694D01*
X107786814Y-67967689D01*
X107876117Y-67776178D01*
X107876118Y-67776177D01*
X107878440Y-67771196D01*
X107935978Y-67556463D01*
X107955353Y-67335000D01*
X107935978Y-67113537D01*
X107878440Y-66898804D01*
X107839141Y-66814527D01*
X107786814Y-66702311D01*
X107786811Y-66702306D01*
X107784488Y-66697324D01*
X107656977Y-66515219D01*
X107499781Y-66358023D01*
X107495273Y-66354866D01*
X107495270Y-66354864D01*
X107419505Y-66301813D01*
X107317677Y-66230512D01*
X107312695Y-66228189D01*
X107312690Y-66228186D01*
X107207627Y-66179195D01*
X107154342Y-66132278D01*
X107134881Y-66064001D01*
X107155423Y-65996041D01*
X107207627Y-65950805D01*
X107312690Y-65901814D01*
X107312695Y-65901811D01*
X107317677Y-65899488D01*
X107480714Y-65785328D01*
X107495270Y-65775136D01*
X107495273Y-65775134D01*
X107499781Y-65771977D01*
X107656977Y-65614781D01*
X107673763Y-65590809D01*
X107781331Y-65437185D01*
X107781332Y-65437183D01*
X107784488Y-65432676D01*
X107786811Y-65427694D01*
X107786814Y-65427689D01*
X107876117Y-65236178D01*
X107876118Y-65236177D01*
X107878440Y-65231196D01*
X107935978Y-65016463D01*
X107955353Y-64795000D01*
X107935978Y-64573537D01*
X107878440Y-64358804D01*
X107873494Y-64348197D01*
X107786814Y-64162311D01*
X107786811Y-64162306D01*
X107784488Y-64157324D01*
X107781331Y-64152815D01*
X107660136Y-63979730D01*
X107660134Y-63979727D01*
X107656977Y-63975219D01*
X107499781Y-63818023D01*
X107495273Y-63814866D01*
X107495270Y-63814864D01*
X107363513Y-63722607D01*
X107317677Y-63690512D01*
X107312695Y-63688189D01*
X107312690Y-63688186D01*
X107207035Y-63638919D01*
X107153750Y-63592002D01*
X107134289Y-63523725D01*
X107154831Y-63455765D01*
X107207035Y-63410529D01*
X107312445Y-63361376D01*
X107321931Y-63355898D01*
X107365764Y-63325207D01*
X107374139Y-63314729D01*
X107367071Y-63301281D01*
X106409885Y-62344095D01*
X106375859Y-62281783D01*
X106377694Y-62256132D01*
X107044408Y-62256132D01*
X107044539Y-62257965D01*
X107048790Y-62264580D01*
X107727003Y-62942793D01*
X107738777Y-62949223D01*
X107750793Y-62939926D01*
X107780897Y-62896932D01*
X107786377Y-62887441D01*
X107875645Y-62696007D01*
X107879391Y-62685715D01*
X107934059Y-62481691D01*
X107935962Y-62470896D01*
X107954372Y-62260475D01*
X107954372Y-62249525D01*
X107935962Y-62039104D01*
X107934059Y-62028309D01*
X107879391Y-61824285D01*
X107875645Y-61813993D01*
X107786377Y-61622559D01*
X107780897Y-61613068D01*
X107750206Y-61569235D01*
X107739729Y-61560860D01*
X107726282Y-61567928D01*
X107052022Y-62242188D01*
X107044408Y-62256132D01*
X106377694Y-62256132D01*
X106380924Y-62210968D01*
X106409885Y-62165905D01*
X107367793Y-61207997D01*
X107374223Y-61196223D01*
X107364926Y-61184207D01*
X107321931Y-61154102D01*
X107312445Y-61148624D01*
X107207035Y-61099471D01*
X107153750Y-61052554D01*
X107134289Y-60984277D01*
X107154831Y-60916317D01*
X107207035Y-60871081D01*
X107312690Y-60821814D01*
X107312695Y-60821811D01*
X107317677Y-60819488D01*
X107442000Y-60732436D01*
X107495270Y-60695136D01*
X107495273Y-60695134D01*
X107499781Y-60691977D01*
X107656977Y-60534781D01*
X107660473Y-60529789D01*
X107781331Y-60357185D01*
X107781332Y-60357183D01*
X107784488Y-60352676D01*
X107786811Y-60347694D01*
X107786814Y-60347689D01*
X107876117Y-60156178D01*
X107876118Y-60156177D01*
X107878440Y-60151196D01*
X107935978Y-59936463D01*
X107955353Y-59715000D01*
X107935978Y-59493537D01*
X107894587Y-59339064D01*
X107879863Y-59284114D01*
X107879862Y-59284112D01*
X107878440Y-59278804D01*
X107863255Y-59246239D01*
X107786814Y-59082311D01*
X107786811Y-59082306D01*
X107784488Y-59077324D01*
X107781331Y-59072815D01*
X107660136Y-58899730D01*
X107660134Y-58899727D01*
X107656977Y-58895219D01*
X107499781Y-58738023D01*
X107495273Y-58734866D01*
X107495270Y-58734864D01*
X107326134Y-58616434D01*
X107317677Y-58610512D01*
X107312695Y-58608189D01*
X107312690Y-58608186D01*
X107151870Y-58533195D01*
X107098585Y-58486278D01*
X107079124Y-58418000D01*
X107099666Y-58350041D01*
X107153689Y-58303975D01*
X107205120Y-58293000D01*
X111561453Y-58293000D01*
X111629574Y-58313002D01*
G37*
%TD.AperFunction*%
%TA.AperFunction,Conductor*%
G36*
X114358959Y-64065339D02*
G01*
X114404195Y-64117543D01*
X114420151Y-64151762D01*
X114420154Y-64151767D01*
X114422477Y-64156749D01*
X114553802Y-64344300D01*
X114715700Y-64506198D01*
X114720208Y-64509355D01*
X114720211Y-64509357D01*
X114872771Y-64616181D01*
X114917099Y-64671638D01*
X114926500Y-64719394D01*
X114926500Y-65400794D01*
X114925973Y-65411977D01*
X114924298Y-65419470D01*
X114924547Y-65427396D01*
X114924547Y-65427397D01*
X114925623Y-65461632D01*
X114907770Y-65530348D01*
X114855602Y-65578503D01*
X114785680Y-65590809D01*
X114720204Y-65563359D01*
X114710590Y-65554685D01*
X113851247Y-64695342D01*
X113817221Y-64633030D01*
X113822286Y-64562215D01*
X113859345Y-64509730D01*
X113859795Y-64509353D01*
X113864300Y-64506198D01*
X114026198Y-64344300D01*
X114157523Y-64156749D01*
X114159846Y-64151767D01*
X114159849Y-64151762D01*
X114175805Y-64117543D01*
X114222722Y-64064258D01*
X114290999Y-64044797D01*
X114358959Y-64065339D01*
G37*
%TD.AperFunction*%
%TA.AperFunction,Conductor*%
G36*
X114143101Y-59618991D02*
G01*
X114189594Y-59672647D01*
X114200770Y-59717734D01*
X114210110Y-59879715D01*
X114211247Y-59884761D01*
X114211248Y-59884767D01*
X114232275Y-59978069D01*
X114259222Y-60097639D01*
X114278813Y-60145886D01*
X114337526Y-60290479D01*
X114343266Y-60304616D01*
X114388810Y-60378937D01*
X114457291Y-60490688D01*
X114459987Y-60495088D01*
X114606250Y-60663938D01*
X114778126Y-60806632D01*
X114971000Y-60919338D01*
X114975825Y-60921180D01*
X114975826Y-60921181D01*
X115029523Y-60941686D01*
X115179692Y-60999030D01*
X115184760Y-61000061D01*
X115184763Y-61000062D01*
X115239784Y-61011256D01*
X115398597Y-61043567D01*
X115403772Y-61043757D01*
X115403774Y-61043757D01*
X115616673Y-61051564D01*
X115616677Y-61051564D01*
X115621837Y-61051753D01*
X115626957Y-61051097D01*
X115626959Y-61051097D01*
X115838288Y-61024025D01*
X115838289Y-61024025D01*
X115843416Y-61023368D01*
X115883787Y-61011256D01*
X116035009Y-60965887D01*
X116106005Y-60965471D01*
X116165955Y-61003503D01*
X116195827Y-61067909D01*
X116197217Y-61086573D01*
X116197217Y-62155589D01*
X116177215Y-62223710D01*
X116123559Y-62270203D01*
X116053285Y-62280307D01*
X116017968Y-62269784D01*
X116014230Y-62268041D01*
X116014226Y-62268039D01*
X116009243Y-62265716D01*
X116003935Y-62264294D01*
X116003933Y-62264293D01*
X115793402Y-62207881D01*
X115793400Y-62207881D01*
X115788087Y-62206457D01*
X115560000Y-62186502D01*
X115331913Y-62206457D01*
X115326600Y-62207881D01*
X115326598Y-62207881D01*
X115116067Y-62264293D01*
X115116065Y-62264294D01*
X115110757Y-62265716D01*
X115105776Y-62268039D01*
X115105775Y-62268039D01*
X114908238Y-62360151D01*
X114908233Y-62360154D01*
X114903251Y-62362477D01*
X114798389Y-62435902D01*
X114720211Y-62490643D01*
X114720208Y-62490645D01*
X114715700Y-62493802D01*
X114553802Y-62655700D01*
X114550645Y-62660208D01*
X114550643Y-62660211D01*
X114495902Y-62738389D01*
X114422477Y-62843251D01*
X114420154Y-62848233D01*
X114420151Y-62848238D01*
X114404195Y-62882457D01*
X114357278Y-62935742D01*
X114289001Y-62955203D01*
X114221041Y-62934661D01*
X114175805Y-62882457D01*
X114159849Y-62848238D01*
X114159846Y-62848233D01*
X114157523Y-62843251D01*
X114084098Y-62738389D01*
X114029357Y-62660211D01*
X114029355Y-62660208D01*
X114026198Y-62655700D01*
X113864300Y-62493802D01*
X113859792Y-62490645D01*
X113859789Y-62490643D01*
X113781611Y-62435902D01*
X113676749Y-62362477D01*
X113671767Y-62360154D01*
X113671762Y-62360151D01*
X113474225Y-62268039D01*
X113474224Y-62268039D01*
X113469243Y-62265716D01*
X113463935Y-62264294D01*
X113463933Y-62264293D01*
X113253402Y-62207881D01*
X113253400Y-62207881D01*
X113248087Y-62206457D01*
X113020000Y-62186502D01*
X112791913Y-62206457D01*
X112786600Y-62207881D01*
X112786598Y-62207881D01*
X112643513Y-62246221D01*
X112572537Y-62244531D01*
X112513741Y-62204737D01*
X112493750Y-62170897D01*
X112487683Y-62155573D01*
X112483843Y-62144354D01*
X112473719Y-62109511D01*
X112471507Y-62101896D01*
X112461196Y-62084461D01*
X112452501Y-62066713D01*
X112445041Y-62047872D01*
X112419053Y-62012102D01*
X112412537Y-62002182D01*
X112394069Y-61970954D01*
X112394067Y-61970951D01*
X112390031Y-61964127D01*
X112375707Y-61949803D01*
X112362872Y-61934776D01*
X112350961Y-61918382D01*
X112344854Y-61913330D01*
X112339424Y-61907547D01*
X112341660Y-61905447D01*
X112309942Y-61858503D01*
X112303989Y-61820232D01*
X112303989Y-59724989D01*
X112323991Y-59656868D01*
X112377647Y-59610375D01*
X112429989Y-59598989D01*
X114074980Y-59598989D01*
X114143101Y-59618991D01*
G37*
%TD.AperFunction*%
%TD*%
M02*
