%TF.GenerationSoftware,KiCad,Pcbnew,(6.0.1)*%
%TF.CreationDate,2022-03-05T18:57:41+09:00*%
%TF.ProjectId,SHC,5348432e-6b69-4636-9164-5f7063625858,rev?*%
%TF.SameCoordinates,Original*%
%TF.FileFunction,Soldermask,Bot*%
%TF.FilePolarity,Negative*%
%FSLAX46Y46*%
G04 Gerber Fmt 4.6, Leading zero omitted, Abs format (unit mm)*
G04 Created by KiCad (PCBNEW (6.0.1)) date 2022-03-05 18:57:41*
%MOMM*%
%LPD*%
G01*
G04 APERTURE LIST*
%ADD10R,1.520000X1.520000*%
%ADD11C,1.520000*%
%ADD12C,2.000000*%
%ADD13C,1.600000*%
%ADD14R,1.700000X1.700000*%
%ADD15O,1.700000X1.700000*%
%ADD16R,1.600000X1.600000*%
%ADD17O,1.600000X1.600000*%
%ADD18R,1.524000X1.524000*%
%ADD19C,1.524000*%
G04 APERTURE END LIST*
D10*
%TO.C,J3*%
X114945000Y-104245000D03*
D11*
X113925000Y-106785000D03*
X112905000Y-104245000D03*
X111885000Y-106785000D03*
X110865000Y-104245000D03*
X109845000Y-106785000D03*
%TD*%
D12*
%TO.C,F1*%
X109510000Y-71680000D03*
X109510000Y-78180000D03*
X114010000Y-78180000D03*
X114010000Y-71680000D03*
%TD*%
%TO.C,W1*%
X109510000Y-83745000D03*
X109510000Y-90245000D03*
X114010000Y-83745000D03*
X114010000Y-90245000D03*
%TD*%
D13*
%TO.C,C2*%
X128992000Y-59690000D03*
X126492000Y-59690000D03*
%TD*%
D10*
%TO.C,J1*%
X128905000Y-104245000D03*
D11*
X127885000Y-106785000D03*
X126865000Y-104245000D03*
X125845000Y-106785000D03*
X124825000Y-104245000D03*
X123805000Y-106785000D03*
%TD*%
D14*
%TO.C,OLED*%
X123180000Y-59690000D03*
D15*
X120640000Y-59690000D03*
X118100000Y-59690000D03*
X115560000Y-59690000D03*
%TD*%
D16*
%TO.C,RN2*%
X110470000Y-67310000D03*
D17*
X113010000Y-67310000D03*
X115550000Y-67310000D03*
X118090000Y-67310000D03*
X120630000Y-67310000D03*
%TD*%
D12*
%TO.C,N1*%
X117130000Y-80720000D03*
X117130000Y-74220000D03*
X121630000Y-80720000D03*
X121630000Y-74220000D03*
%TD*%
D18*
%TO.C,U1*%
X132080000Y-95275000D03*
D19*
X132080000Y-92735000D03*
X132080000Y-90195000D03*
X132080000Y-87655000D03*
X132080000Y-85115000D03*
X132080000Y-82575000D03*
X132080000Y-80035000D03*
X132080000Y-77495000D03*
X132080000Y-74955000D03*
X132080000Y-72415000D03*
X132080000Y-69875000D03*
X132080000Y-67335000D03*
X132080000Y-64795000D03*
X132080000Y-62255000D03*
X132080000Y-59715000D03*
X106680000Y-59715000D03*
X106680000Y-62255000D03*
X106680000Y-64795000D03*
X106680000Y-67335000D03*
X106680000Y-69875000D03*
X106680000Y-72415000D03*
X106680000Y-74955000D03*
X106680000Y-77495000D03*
X106680000Y-80035000D03*
X106680000Y-82575000D03*
X106680000Y-85115000D03*
X106680000Y-87655000D03*
X106680000Y-90195000D03*
X106680000Y-92735000D03*
X106680000Y-95275000D03*
%TD*%
D12*
%TO.C,F2*%
X124750000Y-78180000D03*
X124750000Y-71680000D03*
X129250000Y-78180000D03*
X129250000Y-71680000D03*
%TD*%
%TO.C,E1*%
X124750000Y-90245000D03*
X124750000Y-83745000D03*
X129250000Y-90245000D03*
X129250000Y-83745000D03*
%TD*%
D13*
%TO.C,C1*%
X126365000Y-97790000D03*
X128865000Y-97790000D03*
%TD*%
D16*
%TO.C,RN1*%
X110480000Y-63500000D03*
D17*
X113020000Y-63500000D03*
X115560000Y-63500000D03*
X118100000Y-63500000D03*
X120640000Y-63500000D03*
X123180000Y-63500000D03*
X125720000Y-63500000D03*
X128260000Y-63500000D03*
%TD*%
D12*
%TO.C,S1*%
X117130000Y-99770000D03*
X117130000Y-93270000D03*
X121630000Y-93270000D03*
X121630000Y-99770000D03*
%TD*%
D14*
%TO.C,J4*%
X113030000Y-97150000D03*
D15*
X113030000Y-99690000D03*
%TD*%
D12*
%TO.C,SHIFT1*%
X117130000Y-90245000D03*
X117130000Y-83745000D03*
X121630000Y-90245000D03*
X121630000Y-83745000D03*
%TD*%
M02*
