%TF.GenerationSoftware,KiCad,Pcbnew,(6.0.1)*%
%TF.CreationDate,2022-03-05T18:57:40+09:00*%
%TF.ProjectId,SHC,5348432e-6b69-4636-9164-5f7063625858,rev?*%
%TF.SameCoordinates,Original*%
%TF.FileFunction,Legend,Top*%
%TF.FilePolarity,Positive*%
%FSLAX46Y46*%
G04 Gerber Fmt 4.6, Leading zero omitted, Abs format (unit mm)*
G04 Created by KiCad (PCBNEW (6.0.1)) date 2022-03-05 18:57:40*
%MOMM*%
%LPD*%
G01*
G04 APERTURE LIST*
%ADD10C,0.150000*%
%ADD11C,0.120000*%
%ADD12C,0.800000*%
%ADD13C,1.000000*%
G04 APERTURE END LIST*
D10*
X133350000Y-51435000D02*
G75*
G03*
X132080000Y-50165000I-1269999J1D01*
G01*
X118419523Y-61825142D02*
X118371904Y-61872761D01*
X118229047Y-61920380D01*
X118133809Y-61920380D01*
X117990952Y-61872761D01*
X117895714Y-61777523D01*
X117848095Y-61682285D01*
X117800476Y-61491809D01*
X117800476Y-61348952D01*
X117848095Y-61158476D01*
X117895714Y-61063238D01*
X117990952Y-60968000D01*
X118133809Y-60920380D01*
X118229047Y-60920380D01*
X118371904Y-60968000D01*
X118419523Y-61015619D01*
X120316666Y-60920380D02*
X120650000Y-61920380D01*
X120983333Y-60920380D01*
X115308095Y-61920380D02*
X115308095Y-60920380D01*
X115546190Y-60920380D01*
X115689047Y-60968000D01*
X115784285Y-61063238D01*
X115831904Y-61158476D01*
X115879523Y-61348952D01*
X115879523Y-61491809D01*
X115831904Y-61682285D01*
X115784285Y-61777523D01*
X115689047Y-61872761D01*
X115546190Y-61920380D01*
X115308095Y-61920380D01*
X123451904Y-60968000D02*
X123356666Y-60920380D01*
X123213809Y-60920380D01*
X123070952Y-60968000D01*
X122975714Y-61063238D01*
X122928095Y-61158476D01*
X122880476Y-61348952D01*
X122880476Y-61491809D01*
X122928095Y-61682285D01*
X122975714Y-61777523D01*
X123070952Y-61872761D01*
X123213809Y-61920380D01*
X123309047Y-61920380D01*
X123451904Y-61872761D01*
X123499523Y-61825142D01*
X123499523Y-61491809D01*
X123309047Y-61491809D01*
%TO.C,J3*%
X110410666Y-100798380D02*
X110410666Y-101512666D01*
X110363047Y-101655523D01*
X110267809Y-101750761D01*
X110124952Y-101798380D01*
X110029714Y-101798380D01*
X110791619Y-100798380D02*
X111410666Y-100798380D01*
X111077333Y-101179333D01*
X111220190Y-101179333D01*
X111315428Y-101226952D01*
X111363047Y-101274571D01*
X111410666Y-101369809D01*
X111410666Y-101607904D01*
X111363047Y-101703142D01*
X111315428Y-101750761D01*
X111220190Y-101798380D01*
X110934476Y-101798380D01*
X110839238Y-101750761D01*
X110791619Y-101703142D01*
%TO.C,F1*%
X111688571Y-74501333D02*
X111688571Y-74834666D01*
X112212380Y-74834666D02*
X111212380Y-74834666D01*
X111212380Y-74358476D01*
X112212380Y-73453714D02*
X112212380Y-74025142D01*
X112212380Y-73739428D02*
X111212380Y-73739428D01*
X111355238Y-73834666D01*
X111450476Y-73929904D01*
X111498095Y-74025142D01*
%TO.C,W1*%
X111212380Y-87264761D02*
X112212380Y-87026666D01*
X111498095Y-86836190D01*
X112212380Y-86645714D01*
X111212380Y-86407619D01*
X112212380Y-85502857D02*
X112212380Y-86074285D01*
X112212380Y-85788571D02*
X111212380Y-85788571D01*
X111355238Y-85883809D01*
X111450476Y-85979047D01*
X111498095Y-86074285D01*
%TO.C,C2*%
X128865333Y-61825142D02*
X128817714Y-61872761D01*
X128674857Y-61920380D01*
X128579619Y-61920380D01*
X128436761Y-61872761D01*
X128341523Y-61777523D01*
X128293904Y-61682285D01*
X128246285Y-61491809D01*
X128246285Y-61348952D01*
X128293904Y-61158476D01*
X128341523Y-61063238D01*
X128436761Y-60968000D01*
X128579619Y-60920380D01*
X128674857Y-60920380D01*
X128817714Y-60968000D01*
X128865333Y-61015619D01*
X129246285Y-61015619D02*
X129293904Y-60968000D01*
X129389142Y-60920380D01*
X129627238Y-60920380D01*
X129722476Y-60968000D01*
X129770095Y-61015619D01*
X129817714Y-61110857D01*
X129817714Y-61206095D01*
X129770095Y-61348952D01*
X129198666Y-61920380D01*
X129817714Y-61920380D01*
%TO.C,J1*%
X130476666Y-101052380D02*
X130476666Y-101766666D01*
X130429047Y-101909523D01*
X130333809Y-102004761D01*
X130190952Y-102052380D01*
X130095714Y-102052380D01*
X131476666Y-102052380D02*
X130905238Y-102052380D01*
X131190952Y-102052380D02*
X131190952Y-101052380D01*
X131095714Y-101195238D01*
X131000476Y-101290476D01*
X130905238Y-101338095D01*
%TO.C,OLED*%
X110815619Y-60158380D02*
X111006095Y-60158380D01*
X111101333Y-60206000D01*
X111196571Y-60301238D01*
X111244190Y-60491714D01*
X111244190Y-60825047D01*
X111196571Y-61015523D01*
X111101333Y-61110761D01*
X111006095Y-61158380D01*
X110815619Y-61158380D01*
X110720380Y-61110761D01*
X110625142Y-61015523D01*
X110577523Y-60825047D01*
X110577523Y-60491714D01*
X110625142Y-60301238D01*
X110720380Y-60206000D01*
X110815619Y-60158380D01*
X112148952Y-61158380D02*
X111672761Y-61158380D01*
X111672761Y-60158380D01*
X112482285Y-60634571D02*
X112815619Y-60634571D01*
X112958476Y-61158380D02*
X112482285Y-61158380D01*
X112482285Y-60158380D01*
X112958476Y-60158380D01*
X113387047Y-61158380D02*
X113387047Y-60158380D01*
X113625142Y-60158380D01*
X113768000Y-60206000D01*
X113863238Y-60301238D01*
X113910857Y-60396476D01*
X113958476Y-60586952D01*
X113958476Y-60729809D01*
X113910857Y-60920285D01*
X113863238Y-61015523D01*
X113768000Y-61110761D01*
X113625142Y-61158380D01*
X113387047Y-61158380D01*
%TO.C,RN2*%
X117673523Y-69794380D02*
X117340190Y-69318190D01*
X117102095Y-69794380D02*
X117102095Y-68794380D01*
X117483047Y-68794380D01*
X117578285Y-68842000D01*
X117625904Y-68889619D01*
X117673523Y-68984857D01*
X117673523Y-69127714D01*
X117625904Y-69222952D01*
X117578285Y-69270571D01*
X117483047Y-69318190D01*
X117102095Y-69318190D01*
X118102095Y-69794380D02*
X118102095Y-68794380D01*
X118673523Y-69794380D01*
X118673523Y-68794380D01*
X119102095Y-68889619D02*
X119149714Y-68842000D01*
X119244952Y-68794380D01*
X119483047Y-68794380D01*
X119578285Y-68842000D01*
X119625904Y-68889619D01*
X119673523Y-68984857D01*
X119673523Y-69080095D01*
X119625904Y-69222952D01*
X119054476Y-69794380D01*
X119673523Y-69794380D01*
%TO.C,N1*%
X120086380Y-77469904D02*
X119086380Y-77469904D01*
X120086380Y-76898476D01*
X119086380Y-76898476D01*
X120086380Y-75898476D02*
X120086380Y-76469904D01*
X120086380Y-76184190D02*
X119086380Y-76184190D01*
X119229238Y-76279428D01*
X119324476Y-76374666D01*
X119372095Y-76469904D01*
%TO.C,U1*%
X118618095Y-84257380D02*
X118618095Y-85066904D01*
X118665714Y-85162142D01*
X118713333Y-85209761D01*
X118808571Y-85257380D01*
X118999047Y-85257380D01*
X119094285Y-85209761D01*
X119141904Y-85162142D01*
X119189523Y-85066904D01*
X119189523Y-84257380D01*
X120189523Y-85257380D02*
X119618095Y-85257380D01*
X119903809Y-85257380D02*
X119903809Y-84257380D01*
X119808571Y-84400238D01*
X119713333Y-84495476D01*
X119618095Y-84543095D01*
X110640952Y-55523571D02*
X110783809Y-55571190D01*
X110831428Y-55618809D01*
X110879047Y-55714047D01*
X110879047Y-55856904D01*
X110831428Y-55952142D01*
X110783809Y-55999761D01*
X110688571Y-56047380D01*
X110307619Y-56047380D01*
X110307619Y-55047380D01*
X110640952Y-55047380D01*
X110736190Y-55095000D01*
X110783809Y-55142619D01*
X110831428Y-55237857D01*
X110831428Y-55333095D01*
X110783809Y-55428333D01*
X110736190Y-55475952D01*
X110640952Y-55523571D01*
X110307619Y-55523571D01*
X111450476Y-56047380D02*
X111355238Y-55999761D01*
X111307619Y-55952142D01*
X111260000Y-55856904D01*
X111260000Y-55571190D01*
X111307619Y-55475952D01*
X111355238Y-55428333D01*
X111450476Y-55380714D01*
X111593333Y-55380714D01*
X111688571Y-55428333D01*
X111736190Y-55475952D01*
X111783809Y-55571190D01*
X111783809Y-55856904D01*
X111736190Y-55952142D01*
X111688571Y-55999761D01*
X111593333Y-56047380D01*
X111450476Y-56047380D01*
X112355238Y-56047380D02*
X112260000Y-55999761D01*
X112212380Y-55952142D01*
X112164761Y-55856904D01*
X112164761Y-55571190D01*
X112212380Y-55475952D01*
X112260000Y-55428333D01*
X112355238Y-55380714D01*
X112498095Y-55380714D01*
X112593333Y-55428333D01*
X112640952Y-55475952D01*
X112688571Y-55571190D01*
X112688571Y-55856904D01*
X112640952Y-55952142D01*
X112593333Y-55999761D01*
X112498095Y-56047380D01*
X112355238Y-56047380D01*
X112974285Y-55380714D02*
X113355238Y-55380714D01*
X113117142Y-55047380D02*
X113117142Y-55904523D01*
X113164761Y-55999761D01*
X113260000Y-56047380D01*
X113355238Y-56047380D01*
X124738095Y-55523571D02*
X125071428Y-55523571D01*
X125214285Y-56047380D02*
X124738095Y-56047380D01*
X124738095Y-55047380D01*
X125214285Y-55047380D01*
X125642857Y-55380714D02*
X125642857Y-56047380D01*
X125642857Y-55475952D02*
X125690476Y-55428333D01*
X125785714Y-55380714D01*
X125928571Y-55380714D01*
X126023809Y-55428333D01*
X126071428Y-55523571D01*
X126071428Y-56047380D01*
X126976190Y-56047380D02*
X126976190Y-55523571D01*
X126928571Y-55428333D01*
X126833333Y-55380714D01*
X126642857Y-55380714D01*
X126547619Y-55428333D01*
X126976190Y-55999761D02*
X126880952Y-56047380D01*
X126642857Y-56047380D01*
X126547619Y-55999761D01*
X126500000Y-55904523D01*
X126500000Y-55809285D01*
X126547619Y-55714047D01*
X126642857Y-55666428D01*
X126880952Y-55666428D01*
X126976190Y-55618809D01*
X127452380Y-56047380D02*
X127452380Y-55047380D01*
X127452380Y-55428333D02*
X127547619Y-55380714D01*
X127738095Y-55380714D01*
X127833333Y-55428333D01*
X127880952Y-55475952D01*
X127928571Y-55571190D01*
X127928571Y-55856904D01*
X127880952Y-55952142D01*
X127833333Y-55999761D01*
X127738095Y-56047380D01*
X127547619Y-56047380D01*
X127452380Y-55999761D01*
X128500000Y-56047380D02*
X128404761Y-55999761D01*
X128357142Y-55904523D01*
X128357142Y-55047380D01*
X129261904Y-55999761D02*
X129166666Y-56047380D01*
X128976190Y-56047380D01*
X128880952Y-55999761D01*
X128833333Y-55904523D01*
X128833333Y-55523571D01*
X128880952Y-55428333D01*
X128976190Y-55380714D01*
X129166666Y-55380714D01*
X129261904Y-55428333D01*
X129309523Y-55523571D01*
X129309523Y-55618809D01*
X128833333Y-55714047D01*
X118118095Y-51237380D02*
X118118095Y-52046904D01*
X118165714Y-52142142D01*
X118213333Y-52189761D01*
X118308571Y-52237380D01*
X118499047Y-52237380D01*
X118594285Y-52189761D01*
X118641904Y-52142142D01*
X118689523Y-52046904D01*
X118689523Y-51237380D01*
X119118095Y-52189761D02*
X119260952Y-52237380D01*
X119499047Y-52237380D01*
X119594285Y-52189761D01*
X119641904Y-52142142D01*
X119689523Y-52046904D01*
X119689523Y-51951666D01*
X119641904Y-51856428D01*
X119594285Y-51808809D01*
X119499047Y-51761190D01*
X119308571Y-51713571D01*
X119213333Y-51665952D01*
X119165714Y-51618333D01*
X119118095Y-51523095D01*
X119118095Y-51427857D01*
X119165714Y-51332619D01*
X119213333Y-51285000D01*
X119308571Y-51237380D01*
X119546666Y-51237380D01*
X119689523Y-51285000D01*
X120451428Y-51713571D02*
X120594285Y-51761190D01*
X120641904Y-51808809D01*
X120689523Y-51904047D01*
X120689523Y-52046904D01*
X120641904Y-52142142D01*
X120594285Y-52189761D01*
X120499047Y-52237380D01*
X120118095Y-52237380D01*
X120118095Y-51237380D01*
X120451428Y-51237380D01*
X120546666Y-51285000D01*
X120594285Y-51332619D01*
X120641904Y-51427857D01*
X120641904Y-51523095D01*
X120594285Y-51618333D01*
X120546666Y-51665952D01*
X120451428Y-51713571D01*
X120118095Y-51713571D01*
%TO.C,F2*%
X126674571Y-75009333D02*
X126674571Y-75342666D01*
X127198380Y-75342666D02*
X126198380Y-75342666D01*
X126198380Y-74866476D01*
X126293619Y-74533142D02*
X126246000Y-74485523D01*
X126198380Y-74390285D01*
X126198380Y-74152190D01*
X126246000Y-74056952D01*
X126293619Y-74009333D01*
X126388857Y-73961714D01*
X126484095Y-73961714D01*
X126626952Y-74009333D01*
X127198380Y-74580761D01*
X127198380Y-73961714D01*
%TO.C,E1*%
X126674571Y-87685476D02*
X126674571Y-87352142D01*
X127198380Y-87209285D02*
X127198380Y-87685476D01*
X126198380Y-87685476D01*
X126198380Y-87209285D01*
X127198380Y-86256904D02*
X127198380Y-86828333D01*
X127198380Y-86542619D02*
X126198380Y-86542619D01*
X126341238Y-86637857D01*
X126436476Y-86733095D01*
X126484095Y-86828333D01*
%TO.C,C1*%
X127595333Y-96369142D02*
X127547714Y-96416761D01*
X127404857Y-96464380D01*
X127309619Y-96464380D01*
X127166761Y-96416761D01*
X127071523Y-96321523D01*
X127023904Y-96226285D01*
X126976285Y-96035809D01*
X126976285Y-95892952D01*
X127023904Y-95702476D01*
X127071523Y-95607238D01*
X127166761Y-95512000D01*
X127309619Y-95464380D01*
X127404857Y-95464380D01*
X127547714Y-95512000D01*
X127595333Y-95559619D01*
X128547714Y-96464380D02*
X127976285Y-96464380D01*
X128262000Y-96464380D02*
X128262000Y-95464380D01*
X128166761Y-95607238D01*
X128071523Y-95702476D01*
X127976285Y-95750095D01*
%TO.C,RN1*%
X123515523Y-66238380D02*
X123182190Y-65762190D01*
X122944095Y-66238380D02*
X122944095Y-65238380D01*
X123325047Y-65238380D01*
X123420285Y-65286000D01*
X123467904Y-65333619D01*
X123515523Y-65428857D01*
X123515523Y-65571714D01*
X123467904Y-65666952D01*
X123420285Y-65714571D01*
X123325047Y-65762190D01*
X122944095Y-65762190D01*
X123944095Y-66238380D02*
X123944095Y-65238380D01*
X124515523Y-66238380D01*
X124515523Y-65238380D01*
X125515523Y-66238380D02*
X124944095Y-66238380D01*
X125229809Y-66238380D02*
X125229809Y-65238380D01*
X125134571Y-65381238D01*
X125039333Y-65476476D01*
X124944095Y-65524095D01*
%TO.C,S1*%
X119530761Y-97027904D02*
X119578380Y-96885047D01*
X119578380Y-96646952D01*
X119530761Y-96551714D01*
X119483142Y-96504095D01*
X119387904Y-96456476D01*
X119292666Y-96456476D01*
X119197428Y-96504095D01*
X119149809Y-96551714D01*
X119102190Y-96646952D01*
X119054571Y-96837428D01*
X119006952Y-96932666D01*
X118959333Y-96980285D01*
X118864095Y-97027904D01*
X118768857Y-97027904D01*
X118673619Y-96980285D01*
X118626000Y-96932666D01*
X118578380Y-96837428D01*
X118578380Y-96599333D01*
X118626000Y-96456476D01*
X119578380Y-95504095D02*
X119578380Y-96075523D01*
X119578380Y-95789809D02*
X118578380Y-95789809D01*
X118721238Y-95885047D01*
X118816476Y-95980285D01*
X118864095Y-96075523D01*
%TO.C,J4*%
X110410666Y-96734380D02*
X110410666Y-97448666D01*
X110363047Y-97591523D01*
X110267809Y-97686761D01*
X110124952Y-97734380D01*
X110029714Y-97734380D01*
X111315428Y-97067714D02*
X111315428Y-97734380D01*
X111077333Y-96686761D02*
X110839238Y-97401047D01*
X111458285Y-97401047D01*
%TO.C,SHIFT1*%
X120038761Y-89709333D02*
X120086380Y-89566476D01*
X120086380Y-89328380D01*
X120038761Y-89233142D01*
X119991142Y-89185523D01*
X119895904Y-89137904D01*
X119800666Y-89137904D01*
X119705428Y-89185523D01*
X119657809Y-89233142D01*
X119610190Y-89328380D01*
X119562571Y-89518857D01*
X119514952Y-89614095D01*
X119467333Y-89661714D01*
X119372095Y-89709333D01*
X119276857Y-89709333D01*
X119181619Y-89661714D01*
X119134000Y-89614095D01*
X119086380Y-89518857D01*
X119086380Y-89280761D01*
X119134000Y-89137904D01*
X120086380Y-88709333D02*
X119086380Y-88709333D01*
X119562571Y-88709333D02*
X119562571Y-88137904D01*
X120086380Y-88137904D02*
X119086380Y-88137904D01*
X120086380Y-87661714D02*
X119086380Y-87661714D01*
X119562571Y-86852190D02*
X119562571Y-87185523D01*
X120086380Y-87185523D02*
X119086380Y-87185523D01*
X119086380Y-86709333D01*
X119086380Y-86471238D02*
X119086380Y-85899809D01*
X120086380Y-86185523D02*
X119086380Y-86185523D01*
X120086380Y-85042666D02*
X120086380Y-85614095D01*
X120086380Y-85328380D02*
X119086380Y-85328380D01*
X119229238Y-85423619D01*
X119324476Y-85518857D01*
X119372095Y-85614095D01*
D11*
%TO.C,J3*%
X106185000Y-115195000D02*
X118605000Y-115195000D01*
X118605000Y-101975000D02*
X118605000Y-107715000D01*
X106185000Y-110465000D02*
X106185000Y-115195000D01*
X106185000Y-101975000D02*
X118605000Y-101975000D01*
X118605000Y-110465000D02*
X118605000Y-115195000D01*
X106185000Y-101975000D02*
X106185000Y-107715000D01*
%TO.C,F1*%
X108510000Y-72680000D02*
X108510000Y-77180000D01*
X111010000Y-78430000D02*
X112510000Y-78430000D01*
X112510000Y-71430000D02*
X111010000Y-71430000D01*
X115010000Y-77180000D02*
X115010000Y-72680000D01*
%TO.C,W1*%
X112510000Y-83495000D02*
X111010000Y-83495000D01*
X108510000Y-84745000D02*
X108510000Y-89245000D01*
X115010000Y-89245000D02*
X115010000Y-84745000D01*
X111010000Y-90495000D02*
X112510000Y-90495000D01*
%TO.C,C2*%
X125122000Y-61060000D02*
X125122000Y-58320000D01*
X130362000Y-58320000D02*
X125122000Y-58320000D01*
X130362000Y-61060000D02*
X130362000Y-58320000D01*
X130362000Y-61060000D02*
X125122000Y-61060000D01*
%TO.C,J1*%
X120145000Y-110465000D02*
X120145000Y-115195000D01*
X120145000Y-115195000D02*
X132565000Y-115195000D01*
X120145000Y-101975000D02*
X132565000Y-101975000D01*
X120145000Y-101975000D02*
X120145000Y-107715000D01*
X132565000Y-101975000D02*
X132565000Y-107715000D01*
X132565000Y-110465000D02*
X132565000Y-115195000D01*
%TO.C,OLED*%
X114230000Y-58360000D02*
X114230000Y-61020000D01*
X121910000Y-61020000D02*
X114230000Y-61020000D01*
X123180000Y-58360000D02*
X124510000Y-58360000D01*
X124510000Y-58360000D02*
X124510000Y-59690000D01*
X121910000Y-58360000D02*
X121910000Y-61020000D01*
X121910000Y-58360000D02*
X114230000Y-58360000D01*
%TO.C,RN2*%
X122070000Y-65910000D02*
X109030000Y-65910000D01*
X111740000Y-65910000D02*
X111740000Y-68710000D01*
X109030000Y-65910000D02*
X109030000Y-68710000D01*
X109030000Y-68710000D02*
X122070000Y-68710000D01*
X122070000Y-68710000D02*
X122070000Y-65910000D01*
%TO.C,N1*%
X118630000Y-80970000D02*
X120130000Y-80970000D01*
X122630000Y-79720000D02*
X122630000Y-75220000D01*
X120130000Y-73970000D02*
X118630000Y-73970000D01*
X116130000Y-75220000D02*
X116130000Y-79720000D01*
%TO.C,U1*%
X110490000Y-50515000D02*
X113030000Y-50515000D01*
X125730000Y-54325000D02*
X125730000Y-50515000D01*
X110490000Y-100045000D02*
X110490000Y-94965000D01*
X127000000Y-99283000D02*
X124460000Y-99283000D01*
X105380000Y-51815000D02*
X105380000Y-99315000D01*
X133380000Y-99315000D02*
X133380000Y-51815000D01*
X126880000Y-76315000D02*
X126880000Y-94315000D01*
X121920000Y-97251000D02*
X121920000Y-99283000D01*
X115380000Y-55815000D02*
X115380000Y-49815000D01*
X110490000Y-54325000D02*
X110490000Y-50515000D01*
X128270000Y-50515000D02*
X128270000Y-54325000D01*
X123380000Y-55815000D02*
X115380000Y-55815000D01*
X111760000Y-99283000D02*
X111760000Y-95727000D01*
X124460000Y-97251000D02*
X121920000Y-97251000D01*
X119380000Y-99283000D02*
X119380000Y-97251000D01*
X126880000Y-94315000D02*
X111880000Y-94315000D01*
X127000000Y-95727000D02*
X127000000Y-99283000D01*
X123380000Y-55815000D02*
X123380000Y-49815000D01*
X131380000Y-49815000D02*
X107380000Y-49815000D01*
X116840000Y-97251000D02*
X116840000Y-99283000D01*
X111880000Y-94315000D02*
X111880000Y-76315000D01*
X121920000Y-99283000D02*
X119380000Y-99283000D01*
X125730000Y-50515000D02*
X128270000Y-50515000D01*
X131380000Y-101315000D02*
X107380000Y-101315000D01*
X114300000Y-99283000D02*
X114300000Y-95727000D01*
X111880000Y-76315000D02*
X126880000Y-76315000D01*
X124460000Y-99283000D02*
X124460000Y-97251000D01*
X119380000Y-97251000D02*
X116840000Y-97251000D01*
X128270000Y-94965000D02*
X128270000Y-100045000D01*
X113030000Y-54325000D02*
X110490000Y-54325000D01*
X110490000Y-94965000D02*
X128270000Y-94965000D01*
X113030000Y-50515000D02*
X113030000Y-54325000D01*
X116840000Y-99283000D02*
X111760000Y-99283000D01*
X128270000Y-54325000D02*
X125730000Y-54325000D01*
X128270000Y-100045000D02*
X110490000Y-100045000D01*
X131380000Y-101315000D02*
G75*
G03*
X133380000Y-99315000I1J1999999D01*
G01*
X105380000Y-99315000D02*
G75*
G03*
X107380000Y-101315000I1999999J-1D01*
G01*
X107380000Y-49815000D02*
G75*
G03*
X105380000Y-51815000I-1J-1999999D01*
G01*
X133380000Y-51815000D02*
G75*
G03*
X131380000Y-49815000I-1999999J1D01*
G01*
X109180000Y-99315000D02*
G75*
G03*
X109180000Y-99315000I-1500000J0D01*
G01*
D12*
X124860000Y-78455000D02*
G75*
G03*
X124860000Y-78455000I-400000J0D01*
G01*
D11*
X132580000Y-51815000D02*
G75*
G03*
X132580000Y-51815000I-1500000J0D01*
G01*
D13*
X112060000Y-52420000D02*
G75*
G03*
X112060000Y-52420000I-300000J0D01*
G01*
D11*
X109180000Y-51815000D02*
G75*
G03*
X109180000Y-51815000I-1500000J0D01*
G01*
X132580000Y-99315000D02*
G75*
G03*
X132580000Y-99315000I-1500000J0D01*
G01*
D13*
X127300000Y-52420000D02*
G75*
G03*
X127300000Y-52420000I-300000J0D01*
G01*
D11*
%TO.C,F2*%
X123750000Y-72680000D02*
X123750000Y-77180000D01*
X126250000Y-78430000D02*
X127750000Y-78430000D01*
X127750000Y-71430000D02*
X126250000Y-71430000D01*
X130250000Y-77180000D02*
X130250000Y-72680000D01*
%TO.C,E1*%
X127750000Y-83495000D02*
X126250000Y-83495000D01*
X123750000Y-84745000D02*
X123750000Y-89245000D01*
X126250000Y-90495000D02*
X127750000Y-90495000D01*
X130250000Y-89245000D02*
X130250000Y-84745000D01*
%TO.C,C1*%
X124995000Y-96420000D02*
X124995000Y-99160000D01*
X124995000Y-99160000D02*
X130235000Y-99160000D01*
X124995000Y-96420000D02*
X130235000Y-96420000D01*
X130235000Y-96420000D02*
X130235000Y-99160000D01*
%TO.C,RN1*%
X109040000Y-62100000D02*
X109040000Y-64900000D01*
X129700000Y-62100000D02*
X109040000Y-62100000D01*
X129700000Y-64900000D02*
X129700000Y-62100000D01*
X109040000Y-64900000D02*
X129700000Y-64900000D01*
X111750000Y-62100000D02*
X111750000Y-64900000D01*
%TO.C,S1*%
X122630000Y-98770000D02*
X122630000Y-94270000D01*
X118630000Y-100020000D02*
X120130000Y-100020000D01*
X120130000Y-93020000D02*
X118630000Y-93020000D01*
X116130000Y-94270000D02*
X116130000Y-98770000D01*
%TO.C,J4*%
X111700000Y-95820000D02*
X113030000Y-95820000D01*
X114360000Y-98420000D02*
X114360000Y-101020000D01*
X111700000Y-97150000D02*
X111700000Y-95820000D01*
X111700000Y-98420000D02*
X111700000Y-101020000D01*
X111700000Y-101020000D02*
X114360000Y-101020000D01*
X111700000Y-98420000D02*
X114360000Y-98420000D01*
%TO.C,SHIFT1*%
X118630000Y-90495000D02*
X120130000Y-90495000D01*
X120130000Y-83495000D02*
X118630000Y-83495000D01*
X122630000Y-89245000D02*
X122630000Y-84745000D01*
X116130000Y-84745000D02*
X116130000Y-89245000D01*
%TD*%
M02*
